<?xml version="1.0" standalone="no"?>
<!DOCTYPE svg PUBLIC "-//W3C//DTD SVG 20010904//EN"
 "http://www.w3.org/TR/2001/REC-SVG-20010904/DTD/svg10.dtd">
<svg version="1.0" xmlns="http://www.w3.org/2000/svg"
 width="260.000000pt" height="260.000000pt" viewBox="0 0 260.000000 260.000000"
 preserveAspectRatio="xMidYMid meet">

<g transform="translate(0.000000,260.000000) scale(0.100000,-0.100000)"
fill="#000000" stroke="none">
<path d="M1280 2580 c0 -12 7 -20 18 -20 25 -1 56 -26 42 -35 -6 -4 -18 1 -26
11 -14 18 -14 18 -29 0 -12 -16 -18 -17 -27 -8 -9 9 -8 12 5 12 9 0 17 4 17
10 0 5 -7 6 -17 3 -12 -5 -14 -3 -8 8 4 8 -3 4 -16 -9 -20 -19 -22 -25 -12
-42 7 -10 9 -22 4 -25 -5 -3 -12 1 -14 7 -4 10 -8 9 -16 -2 -8 -11 -11 -12
-11 -2 0 7 -5 10 -10 7 -6 -4 -7 -11 -4 -17 5 -7 2 -8 -5 -4 -8 5 -14 1 -18
-12 -2 -11 -13 -22 -22 -25 -10 -2 -34 -25 -55 -50 -31 -38 -36 -49 -26 -64
10 -17 11 -17 7 2 -4 27 38 66 66 61 18 -2 22 -9 22 -41 0 -22 -5 -40 -12 -42
-7 -3 -13 3 -13 13 0 9 -3 14 -6 11 -4 -3 -15 -2 -25 4 -14 7 -19 6 -19 -4 0
-25 31 -77 46 -77 8 0 14 -6 15 -12 0 -7 6 3 12 22 9 30 11 32 15 13 4 -27
-17 -75 -37 -81 -10 -3 -12 0 -8 12 7 18 -1 20 -23 6 -12 -8 -12 -10 3 -16 24
-9 21 -17 -10 -31 -38 -18 -50 -16 -57 10 -7 21 -7 21 -15 2 -5 -12 -4 -25 2
-33 8 -10 7 -13 -4 -12 -7 1 -25 1 -39 0 -18 -2 -20 -4 -7 -7 9 -2 17 -11 17
-19 0 -18 -10 -17 -35 2 -18 14 -20 13 -25 -8 -6 -22 -7 -21 -22 10 -9 18 -12
30 -7 26 5 -3 16 0 24 6 12 10 15 10 16 -1 0 -8 4 -5 9 6 5 11 9 15 9 9 1 -6
7 -11 15 -11 8 0 12 6 8 15 -3 9 -1 13 5 9 14 -9 53 47 48 71 -3 17 1 19 27
15 27 -4 29 -3 23 19 -9 29 -6 27 -45 34 -26 6 -31 4 -25 -6 5 -9 4 -11 -3 -6
-11 7 -72 -49 -72 -65 0 -4 -92 -5 -205 -3 -204 4 -211 3 -206 -28 0 -5 -5 -8
-13 -8 -8 0 -13 8 -12 18 1 12 -8 18 -33 20 -21 2 -31 0 -26 -7 8 -14 -1 -14
-25 -1 -23 12 -43 -8 -30 -30 13 -20 12 -33 0 -25 -6 4 -10 -7 -10 -25 0 -23
6 -33 25 -40 26 -10 34 -22 13 -19 -37 5 -38 4 -34 -206 2 -113 1 -205 -3
-205 -16 0 -72 -61 -65 -72 5 -7 3 -8 -6 -3 -10 6 -12 1 -6 -25 7 -39 5 -36
34 -45 22 -6 23 -4 19 23 -4 26 -2 30 15 27 24 -5 80 34 71 48 -4 6 0 8 9 4
11 -4 15 0 13 11 -1 9 3 20 9 24 7 5 7 8 -3 8 -11 0 -11 3 -1 15 6 8 9 19 6
24 -4 5 8 2 26 -7 25 -12 29 -17 15 -20 -18 -4 -23 -27 -7 -37 15 -9 12 -25
-5 -25 -8 0 -15 8 -16 18 0 9 -5 4 -9 -12 -5 -16 -6 -34 -3 -40 5 -7 2 -7 -8
0 -8 7 -22 8 -34 3 -19 -8 -19 -8 2 -15 26 -7 28 -19 11 -57 -15 -31 -23 -34
-32 -10 -6 15 -8 15 -16 3 -14 -22 -12 -30 5 -24 8 4 15 2 15 -4 0 -17 -23
-30 -65 -37 -30 -5 -36 -4 -25 4 8 6 24 11 35 12 11 0 14 3 8 6 -7 2 -13 9
-13 14 0 6 4 8 9 5 5 -3 12 1 15 10 9 22 8 24 -10 24 -8 0 -12 -5 -8 -11 8
-13 -35 -3 -50 12 -6 5 -20 9 -33 9 -13 0 -23 4 -23 9 0 5 10 7 23 4 20 -4 20
-3 4 7 -15 10 -26 5 -64 -26 -25 -21 -48 -45 -50 -55 -3 -9 -14 -20 -25 -22
-13 -4 -17 -10 -12 -18 4 -7 3 -10 -4 -5 -6 3 -13 2 -17 -4 -3 -5 0 -10 7 -10
10 0 9 -3 -2 -11 -11 -8 -12 -12 -2 -16 6 -2 10 -9 7 -14 -3 -5 -15 -3 -25 4
-17 10 -23 8 -42 -12 -13 -13 -17 -20 -9 -16 11 6 13 4 8 -8 -3 -10 -2 -17 3
-17 6 0 10 8 10 17 0 13 3 14 12 5 9 -9 8 -15 -8 -27 -19 -15 -19 -15 0 -30
16 -12 17 -18 8 -27 -9 -9 -12 -8 -12 5 0 9 -4 17 -10 17 -5 0 -6 -7 -3 -17 5
-12 3 -14 -8 -8 -8 4 -4 -3 9 -16 19 -20 25 -22 42 -12 10 7 22 9 25 4 3 -5
-1 -12 -7 -14 -10 -4 -9 -8 2 -16 11 -8 12 -11 2 -11 -7 0 -10 -5 -7 -10 4 -6
11 -7 17 -4 7 5 8 2 4 -5 -5 -8 -1 -14 12 -18 11 -2 22 -13 25 -22 2 -10 25
-34 50 -55 38 -31 49 -36 64 -26 17 10 17 11 -2 7 -27 -4 -66 38 -61 66 2 18
9 22 41 22 22 0 40 -5 42 -12 3 -7 -3 -13 -12 -13 -9 0 -13 -5 -10 -10 4 -6
11 -7 17 -4 7 4 8 2 4 -5 -4 -6 -11 -9 -16 -6 -4 3 -10 -2 -14 -10 -3 -10 1
-15 13 -15 11 0 21 4 23 8 2 5 16 12 31 16 19 4 26 3 22 -4 -3 -5 1 -10 9 -10
9 0 16 3 16 8 0 11 -16 34 -24 33 -18 -3 -19 1 -1 9 l20 9 -20 0 c-11 1 -27 6
-35 12 -11 8 -5 9 25 4 42 -7 65 -20 65 -37 0 -6 -7 -8 -15 -4 -17 6 -19 -2
-6 -22 6 -10 10 -10 21 3 11 14 14 12 26 -11 20 -37 17 -51 -9 -58 -21 -7 -21
-7 -2 -15 12 -5 25 -4 33 2 10 8 13 7 12 -4 -1 -7 -1 -25 0 -39 2 -18 4 -20 7
-7 2 9 11 17 18 17 20 0 27 -17 10 -24 -21 -8 -19 -34 3 -38 13 -3 9 -8 -16
-20 -18 -9 -30 -12 -26 -7 3 5 0 16 -6 24 -10 12 -9 15 6 16 16 0 17 1 3 7 -9
4 -15 15 -14 24 2 11 -2 15 -13 11 -9 -4 -13 -2 -9 4 9 14 -47 53 -71 48 -17
-3 -19 1 -15 27 4 27 3 29 -19 23 -29 -9 -27 -6 -34 -41 -6 -30 15 -60 63 -93
21 -14 21 -20 17 -218 -4 -203 -3 -209 29 -204 17 3 5 -17 -13 -22 -15 -4 -20
-14 -20 -37 0 -18 4 -29 10 -25 7 4 7 -2 1 -19 -12 -29 6 -50 29 -36 20 13 33
12 25 0 -9 -15 49 -12 63 2 10 10 15 10 20 1 7 -11 199 -16 227 -6 6 2 11 14
12 26 2 22 2 22 -11 -2 -7 -13 -15 -20 -18 -15 -3 5 3 17 12 27 18 18 19 18
31 -5 7 -12 12 -26 11 -30 -1 -4 31 -5 71 -2 66 4 74 2 87 -17 8 -12 26 -34
40 -48 22 -23 29 -26 58 -17 17 5 32 15 32 23 0 18 24 43 42 43 10 0 9 3 -2
10 -21 14 -30 12 -30 -5 0 -8 -6 -15 -12 -16 -7 0 -21 -2 -30 -4 -12 -2 -15 3
-13 17 4 19 -31 77 -42 70 -3 -2 -11 5 -19 15 -7 10 -14 14 -14 8 -1 -5 -5 -1
-10 10 -8 19 -9 19 -9 1 -1 -15 -4 -16 -16 -6 -8 6 -19 9 -24 6 -5 -4 -2 8 7
26 12 25 17 29 20 15 4 -18 32 -24 32 -7 0 6 7 10 15 10 21 0 19 -28 -2 -33
-13 -3 -11 -5 7 -7 14 -1 30 -2 36 -1 6 1 9 -11 6 -29 -4 -25 -1 -29 12 -24
12 5 19 0 23 -15 7 -27 23 -18 18 11 -5 24 -15 37 -15 19 0 -7 -4 -9 -10 -6
-14 9 -12 25 3 25 17 0 67 -23 67 -31 0 -4 -8 -10 -17 -13 -15 -6 -15 -8 -3
-16 22 -14 30 -12 24 5 -4 8 -2 15 4 15 17 0 30 -23 37 -65 5 -30 4 -36 -4
-25 -6 8 -11 24 -11 35 0 11 -4 16 -8 10 -4 -5 -16 -15 -27 -21 -11 -6 -20
-16 -20 -22 0 -6 -3 -14 -7 -18 -5 -4 -8 -16 -8 -26 0 -15 4 -17 19 -9 10 6
21 7 25 4 3 -3 6 2 6 11 0 10 6 16 13 14 7 -3 12 -21 12 -43 0 -32 -4 -39 -22
-41 -29 -5 -70 34 -65 61 2 16 1 17 -7 5 -6 -8 -11 -18 -11 -21 0 -13 82 -99
95 -99 7 0 15 -9 18 -21 4 -13 10 -18 18 -13 7 4 10 3 5 -4 -3 -6 -2 -13 4
-17 5 -3 10 0 10 7 0 10 3 9 11 -2 8 -11 12 -12 16 -2 2 6 9 10 14 7 5 -3 3
-15 -4 -25 -10 -17 -8 -23 12 -42 13 -13 20 -17 16 -9 -5 9 -3 12 6 9 8 -3 15
-14 17 -26 4 -29 40 -29 44 0 2 12 9 23 17 26 9 3 11 0 6 -9 -4 -8 2 -4 15 7
18 18 20 25 11 42 -7 12 -7 23 -2 26 5 4 12 0 14 -6 4 -10 8 -9 16 2 8 11 11
12 11 2 0 -7 5 -10 10 -7 6 4 7 11 4 17 -5 7 -2 8 5 4 8 -5 14 -1 18 12 2 11
13 22 22 25 10 2 34 25 55 50 31 38 36 49 26 64 -10 16 -11 16 -7 -5 3 -12 1
-22 -4 -22 -5 0 -9 10 -9 23 0 13 -4 27 -9 33 -15 15 -25 58 -12 50 6 -4 11 0
11 9 0 12 -5 15 -16 11 -9 -3 -18 -6 -20 -6 -3 0 -2 -4 1 -10 3 -5 2 -10 -4
-10 -5 0 -12 6 -14 13 -3 6 -6 3 -6 -8 -1 -11 -6 -27 -12 -35 -8 -11 -9 -5 -4
25 7 42 20 65 37 65 6 0 8 -7 4 -15 -6 -17 2 -19 24 -5 12 8 12 10 -3 16 -21
8 -22 24 -2 24 8 0 15 5 15 10 0 6 11 10 24 10 16 0 26 -7 30 -23 7 -21 7 -21
15 -2 5 11 4 22 0 23 -14 6 -11 23 4 21 6 -1 23 0 37 1 18 2 20 4 8 7 -10 2
-18 10 -18 17 0 22 11 25 29 8 22 -21 16 -52 -9 -47 -14 3 -17 -1 -13 -12 4
-10 2 -14 -4 -10 -14 9 -53 -47 -48 -71 3 -17 -1 -19 -27 -15 -26 4 -30 2 -24
-12 3 -9 6 -20 6 -25 0 -5 13 -11 29 -15 35 -7 67 11 95 54 l20 29 200 -4
c149 -2 202 0 208 9 6 9 10 9 20 -1 14 -14 72 -17 63 -2 -8 12 5 13 25 0 22
-13 42 7 30 30 -13 24 -13 33 1 25 7 -5 9 5 7 26 -2 19 -8 33 -15 32 -6 -1
-17 4 -23 12 -9 11 -9 15 -1 15 6 0 11 -5 11 -11 0 -6 7 -4 15 5 13 12 14 46
11 214 -4 192 -3 199 17 213 36 25 58 49 52 59 -3 5 1 7 9 4 11 -4 13 0 9 14
-3 14 -11 18 -24 15 -10 -3 -19 0 -19 6 0 5 7 8 15 5 9 -4 15 0 15 10 0 9 -4
16 -9 16 -5 0 -17 3 -26 6 -14 6 -16 2 -12 -24 4 -26 2 -30 -15 -27 -24 5 -80
-34 -71 -48 4 -6 0 -8 -9 -4 -11 4 -15 0 -13 -11 1 -9 -3 -20 -9 -24 -7 -5 -7
-8 3 -8 11 0 11 -3 1 -15 -6 -8 -9 -19 -6 -24 4 -5 -8 -2 -26 7 -31 15 -32 16
-10 22 21 5 22 7 8 25 -19 25 -20 35 -2 35 8 0 17 -8 19 -18 3 -12 5 -10 7 8
1 14 2 31 1 38 -2 14 15 17 21 3 2 -4 12 -5 23 0 19 8 19 8 -2 15 -16 4 -23
14 -23 30 0 13 5 24 10 24 6 0 10 7 10 15 0 8 5 15 10 15 6 0 10 -7 10 -15 0
-20 16 -19 24 1 9 22 8 24 -9 18 -8 -4 -15 -2 -15 4 0 17 23 30 65 37 30 5 36
4 25 -4 -8 -6 -24 -11 -35 -12 -11 0 -14 -3 -7 -6 6 -2 12 -9 12 -14 0 -6 -4
-8 -9 -5 -5 3 -12 -1 -15 -10 -9 -22 -8 -24 10 -24 8 0 12 5 8 11 -8 13 35 3
51 -12 5 -5 19 -9 32 -9 13 0 23 -4 23 -9 0 -5 -10 -7 -22 -4 -21 4 -21 3 -5
-7 15 -10 26 -5 64 26 25 21 48 45 50 55 3 9 14 20 25 22 13 4 17 10 12 18 -4
7 -3 10 4 5 6 -3 13 -2 17 4 3 5 0 10 -7 10 -10 0 -9 3 2 11 11 8 12 12 2 16
-6 2 -10 9 -6 14 3 5 14 5 26 -2 17 -9 24 -7 41 10 13 13 16 21 9 21 -7 0 -10
5 -7 10 3 6 15 10 26 10 28 0 25 38 -3 42 -12 2 -23 9 -26 17 -3 9 0 11 9 6 8
-4 4 3 -9 16 -19 20 -25 22 -42 12 -10 -7 -22 -9 -25 -4 -3 5 1 12 7 14 10 4
9 8 -2 16 -11 8 -12 11 -2 11 7 0 10 5 7 10 -4 6 -11 7 -17 4 -7 -5 -8 -2 -4
5 5 8 1 14 -12 18 -11 2 -22 13 -25 22 -2 10 -25 34 -50 55 -38 31 -49 36 -64
26 -17 -10 -17 -11 2 -7 27 4 66 -38 61 -66 -2 -18 -9 -22 -41 -22 -22 0 -40
5 -42 13 -3 6 3 12 12 12 9 0 13 5 10 10 -4 6 -11 7 -17 4 -7 -4 -8 -2 -4 5 4
6 11 9 16 6 4 -3 10 2 14 10 6 16 -24 22 -38 8 -4 -5 -12 -8 -18 -8 -6 0 -16
-9 -22 -20 -6 -11 -15 -23 -21 -27 -5 -4 -1 -8 10 -8 11 0 27 -5 35 -11 11 -8
5 -9 -25 -4 -42 7 -65 20 -65 37 0 6 7 8 15 4 17 -6 19 2 5 24 -8 12 -10 12
-16 -3 -8 -21 -24 -22 -24 -2 0 8 -4 15 -10 15 -5 0 -10 11 -10 24 0 16 7 26
23 30 21 7 21 7 2 15 -12 5 -25 4 -33 -2 -10 -8 -13 -7 -12 4 1 7 1 25 0 39
-2 18 -4 20 -7 8 -2 -10 -11 -18 -19 -18 -16 0 -19 16 -4 25 16 10 11 33 -7
37 -14 3 -10 8 15 20 18 9 30 12 26 7 -3 -5 0 -16 6 -24 10 -12 10 -15 -1 -15
-11 0 -11 -2 1 -10 8 -5 11 -10 5 -10 -5 0 -1 -7 10 -16 11 -8 20 -18 19 -22
-1 -14 44 -41 64 -37 14 2 19 -1 17 -13 -2 -9 -4 -23 -4 -29 -1 -7 -8 -13 -16
-13 -17 0 -19 -9 -5 -30 8 -13 10 -13 10 2 0 9 13 22 30 29 57 26 47 90 -20
134 l-30 20 4 80 c3 43 2 74 -2 68 -5 -8 -14 -6 -31 6 -18 14 -21 20 -11 26 8
5 11 4 6 -3 -4 -7 1 -10 14 -9 26 2 27 5 28 126 0 78 -3 107 -14 118 -8 8 -14
10 -14 4 0 -6 -5 -11 -11 -11 -8 0 -8 4 1 15 6 8 17 13 23 12 7 -1 13 13 15
32 2 21 0 31 -7 26 -13 -8 -14 5 -1 25 13 22 -7 42 -30 30 -24 -13 -33 -13
-25 0 9 15 -49 12 -63 -2 -10 -10 -14 -10 -20 -1 -6 9 -58 12 -208 9 -195 -4
-201 -4 -215 17 -33 48 -63 69 -93 63 -35 -7 -32 -5 -41 -34 -6 -22 -4 -23 23
-19 26 4 30 2 27 -15 -5 -24 34 -80 48 -71 6 4 8 0 4 -9 -4 -11 0 -15 11 -13
9 1 20 -3 24 -9 5 -7 8 -7 8 3 0 11 3 11 15 1 8 -6 19 -9 24 -6 5 4 2 -8 -7
-26 -15 -31 -16 -32 -22 -10 -5 21 -7 22 -25 8 -25 -19 -35 -20 -35 -2 0 8 8
17 18 19 12 3 10 5 -8 7 -14 1 -32 1 -39 0 -11 -1 -12 2 -4 12 6 8 7 21 2 33
-8 19 -8 19 -15 -2 -4 -16 -14 -23 -30 -23 -13 0 -24 5 -24 10 0 6 -7 10 -15
10 -20 0 -19 16 2 24 15 6 15 8 3 16 -22 14 -30 12 -24 -5 4 -8 2 -15 -4 -15
-17 0 -30 23 -37 65 -5 30 -4 36 4 25 6 -8 11 -24 11 -35 0 -12 3 -16 8 -9 4
6 15 13 25 17 9 3 17 16 17 27 0 11 5 20 10 20 6 0 10 11 10 25 0 14 4 25 9
25 5 0 7 -10 4 -22 -4 -21 -3 -21 7 -5 10 15 5 26 -26 64 -21 25 -45 48 -55
50 -9 3 -20 14 -22 25 -4 13 -10 17 -18 12 -7 -4 -10 -3 -5 4 3 6 2 13 -4 17
-5 3 -10 0 -10 -7 0 -10 -3 -9 -11 2 -8 11 -12 12 -16 2 -2 -6 -9 -10 -14 -6
-5 3 -5 14 2 26 9 17 7 24 -10 41 -13 13 -21 16 -21 9 0 -7 -4 -10 -10 -7 -5
3 -10 15 -10 26 0 12 -7 19 -20 19 -13 0 -20 -7 -20 -20z m54 -76 c18 -18 21
-44 5 -44 -6 0 -13 9 -16 21 -4 16 -8 18 -14 7 -8 -11 -10 -11 -18 0 -6 11
-10 9 -14 -7 -6 -24 -27 -29 -27 -7 0 20 28 46 50 46 10 0 26 -7 34 -16z m-15
-43 c17 -11 5 -31 -19 -31 -24 0 -36 20 -19 31 8 5 16 9 19 9 3 0 11 -4 19 -9z
m-59 -21 c0 -5 -4 -10 -9 -10 -6 0 -13 5 -16 10 -3 6 1 10 9 10 9 0 16 -4 16
-10z m105 0 c-3 -5 -10 -10 -16 -10 -5 0 -9 5 -9 10 0 6 7 10 16 10 8 0 12 -4
9 -10z m-187 -17 c5 -10 7 -23 5 -30 -2 -6 3 -10 11 -9 18 3 34 16 19 16 -6 0
-13 7 -16 14 -4 10 -1 13 8 10 7 -3 16 -12 19 -20 3 -8 10 -14 16 -14 6 0 8 5
4 12 -4 7 -3 8 4 4 20 -12 13 -29 -9 -23 -15 4 -18 2 -10 -7 6 -7 9 -15 7 -17
-3 -2 4 -15 15 -29 14 -17 22 -21 26 -12 6 15 43 16 43 1 0 -6 7 -8 16 -5 12
4 15 2 10 -9 -7 -18 15 -20 32 -3 7 7 12 8 12 2 0 -6 -6 -16 -12 -23 -11 -10
-6 -18 22 -43 19 -17 52 -46 73 -64 21 -19 42 -34 47 -34 4 0 10 -10 13 -21 4
-15 11 -20 22 -15 13 5 15 1 10 -15 -5 -15 -2 -22 14 -26 12 -3 21 -12 21 -21
0 -12 3 -13 12 -4 9 9 15 9 26 0 11 -10 17 -8 28 7 8 10 14 14 14 9 0 -5 24
-10 53 -10 28 0 87 -3 131 -7 l78 -7 -5 28 -5 27 19 -24 c10 -13 20 -19 20
-15 4 31 2 40 -11 51 -10 8 -17 8 -21 1 -4 -6 -12 -7 -19 -3 -19 12 16 34 42
27 15 -3 19 -2 14 7 -4 6 -12 9 -17 6 -12 -8 -12 12 1 36 7 13 7 19 0 19 -5 0
-10 4 -10 9 0 11 30 19 48 14 17 -6 15 -53 -3 -53 -9 0 -12 -6 -9 -15 8 -21
19 -19 32 8 11 20 12 20 11 2 -2 -36 1 -46 11 -40 6 3 10 2 10 -4 0 -19 -19
-21 -29 -4 -10 17 -10 17 -11 1 0 -10 -6 -18 -12 -18 -9 0 -8 -3 2 -9 8 -6 18
-7 22 -5 4 3 8 1 8 -5 0 -5 -4 -13 -10 -16 -5 -3 -10 -1 -10 6 0 10 -3 10 -12
1 -14 -14 -7 -23 20 -25 17 -1 20 -7 18 -39 -2 -25 1 -38 9 -38 7 0 18 -6 24
-14 9 -11 6 -12 -14 -8 l-25 4 7 -78 c4 -44 7 -103 7 -131 0 -29 5 -53 10 -53
5 0 1 -6 -9 -14 -17 -12 -17 -16 -5 -31 12 -14 12 -18 -1 -26 -12 -7 -11 -9 2
-9 9 0 19 -9 22 -21 4 -15 11 -19 25 -14 17 5 19 2 15 -15 -4 -16 -1 -20 17
-20 17 0 21 -4 16 -17 -4 -10 -4 -14 0 -11 6 6 39 -27 107 -107 21 -24 28 -28
38 -17 7 6 18 12 23 12 6 0 5 -5 -2 -12 -17 -17 -15 -39 3 -32 11 5 13 2 9
-10 -3 -9 -1 -16 5 -16 15 0 14 -37 -1 -43 -9 -3 -4 -11 12 -23 14 -11 28 -19
33 -20 4 -1 9 -3 12 -4 6 -3 22 -7 34 -9 5 0 11 -8 15 -16 4 -13 2 -13 -14 -5
-25 13 -27 13 -27 -5 0 -10 6 -14 15 -10 15 5 42 -11 42 -26 0 -11 -30 -39
-42 -39 -7 0 -6 5 1 14 10 12 6 15 -19 21 -33 7 -36 14 -17 35 6 8 0 5 -14 -8
-31 -27 -45 -28 -52 -2 -4 16 -2 18 13 10 14 -8 19 -5 22 15 4 17 1 25 -9 25
-8 0 -12 4 -9 9 3 5 0 11 -8 14 -11 4 -13 -1 -10 -20 4 -24 3 -25 -12 -12 -14
12 -20 9 -46 -21 -17 -19 -46 -52 -64 -73 -19 -21 -34 -43 -34 -48 0 -5 -10
-9 -21 -9 -17 0 -20 -5 -16 -20 4 -17 2 -20 -15 -15 -14 5 -21 1 -25 -14 -3
-12 -12 -21 -21 -21 -12 0 -13 -3 -4 -12 9 -9 9 -15 0 -26 -10 -11 -8 -17 7
-28 10 -8 14 -14 8 -14 -7 0 -10 -21 -10 -53 1 -28 -2 -87 -7 -131 l-8 -79 26
5 c21 4 24 3 15 -8 -6 -8 -19 -14 -28 -14 -12 0 -13 -2 -3 -8 9 -6 10 -16 3
-34 -5 -14 -7 -29 -4 -32 4 -3 -6 -7 -20 -7 -15 -1 -33 -2 -39 -3 -7 -1 -20
-10 -30 -21 -16 -19 -16 -19 -11 9 l6 28 -79 -8 c-44 -4 -100 -8 -126 -8 -25
-1 -50 -4 -54 -8 -4 -4 -13 0 -20 10 -10 13 -15 14 -25 5 -9 -9 -16 -10 -26
-2 -10 9 -13 8 -13 -4 0 -8 -9 -17 -21 -20 -15 -4 -19 -11 -14 -25 5 -17 2
-19 -15 -15 -15 4 -20 1 -20 -16 0 -11 -4 -21 -9 -21 -5 0 -27 -15 -48 -34
-21 -18 -54 -47 -73 -64 -30 -26 -33 -32 -21 -46 13 -15 12 -16 -12 -12 -19 3
-24 1 -20 -10 3 -8 9 -11 14 -8 5 3 9 -1 9 -9 0 -10 8 -13 25 -9 20 3 23 8 15
22 -8 15 -6 17 10 13 26 -7 25 -21 -2 -51 -23 -25 -23 -25 -1 -13 19 10 22 8
28 -20 6 -24 9 -28 21 -18 20 16 18 -5 -2 -25 -8 -9 -19 -16 -24 -16 -12 0
-28 32 -23 46 2 6 -3 11 -12 11 -18 0 -18 -2 -5 -27 8 -16 8 -18 -5 -14 -8 4
-16 10 -16 15 -2 12 -6 28 -9 34 -1 3 -3 8 -4 13 -1 4 -9 18 -20 32 -12 16
-20 21 -23 13 -6 -17 -40 -17 -46 0 -4 8 -12 4 -26 -13 -11 -13 -19 -27 -19
-30 0 -3 -1 -8 -2 -12 -4 -12 -7 -27 -9 -37 0 -5 -8 -11 -16 -15 -13 -4 -13
-2 -5 14 13 25 13 27 -5 27 -10 0 -14 -6 -10 -15 5 -15 -11 -42 -26 -42 -10 0
-39 29 -39 40 0 5 7 7 15 4 9 -4 16 3 21 20 5 22 9 24 28 14 21 -11 21 -10 -1
14 -28 30 -29 44 -3 51 16 4 18 2 10 -13 -8 -14 -5 -19 15 -22 17 -4 25 -1 25
9 0 8 4 12 9 9 5 -3 11 1 15 9 7 18 -15 20 -32 3 -7 -7 -12 -8 -12 -2 0 6 6
16 13 23 10 10 5 18 -23 43 -19 17 -52 46 -73 64 -21 19 -42 34 -47 34 -4 0
-10 10 -13 21 -4 15 -11 20 -22 15 -13 -5 -15 -1 -10 15 5 15 2 22 -14 26 -12
3 -21 12 -21 21 0 12 -3 13 -12 4 -9 -9 -15 -9 -26 0 -11 10 -18 7 -33 -12
-11 -14 -17 -18 -14 -10 4 13 -4 16 -47 16 -29 0 -88 3 -132 7 l-78 7 5 -28
c5 -26 5 -26 -12 -7 -17 21 -25 24 -66 27 -13 1 -22 4 -20 6 2 2 -1 16 -6 30
-7 18 -6 28 3 34 10 6 9 8 -3 8 -9 0 -22 6 -28 14 -9 11 -6 12 14 8 l25 -4 -5
68 c-7 85 -14 134 -20 144 -3 5 1 10 7 13 10 3 10 9 2 23 -9 15 -8 21 5 31 13
9 13 14 4 24 -9 9 -10 16 -2 26 9 10 8 13 -4 13 -8 0 -17 9 -20 21 -4 15 -11
19 -25 14 -17 -5 -19 -2 -15 15 4 15 1 20 -16 20 -11 0 -21 4 -21 9 0 6 -17
29 -39 53 -21 24 -50 56 -64 73 -22 26 -27 28 -41 16 -15 -13 -16 -12 -12 12
3 19 1 24 -10 20 -8 -3 -11 -9 -8 -14 3 -5 -1 -9 -9 -9 -10 0 -13 -8 -9 -25 3
-20 8 -23 22 -15 15 8 17 6 13 -10 -7 -26 -21 -25 -52 2 -14 13 -20 16 -13 8
18 -20 15 -27 -14 -34 -17 -5 -24 -12 -20 -21 7 -20 -9 -19 -28 1 -17 17 -20
27 -9 38 4 3 8 14 9 23 2 9 10 20 18 25 9 5 16 14 16 19 0 6 -5 7 -12 3 -7 -4
-8 -3 -4 4 12 20 29 13 23 -9 -4 -15 -2 -18 7 -10 7 6 15 9 18 6 3 -3 11 1 18
10 11 13 9 15 -11 15 -17 0 -20 3 -11 12 8 8 15 8 27 -2 8 -7 19 -9 23 -5 4 4
1 10 -5 12 -7 3 -13 13 -13 23 0 10 6 21 13 23 8 4 4 12 -13 26 -13 11 -27 19
-30 19 -3 0 -8 1 -12 2 -12 4 -27 7 -37 9 -5 0 -11 8 -15 16 -4 13 -2 13 14 5
25 -13 27 -13 27 5 0 9 -5 14 -11 12 -14 -5 -46 11 -46 23 0 5 7 16 16 24 20
20 41 22 25 2 -10 -12 -6 -15 19 -21 33 -7 36 -14 18 -35 -7 -8 -1 -5 13 8 31
27 45 28 52 2 4 -16 2 -18 -13 -10 -14 8 -19 5 -22 -15 -4 -17 -1 -25 9 -25 8
0 12 -4 9 -9 -3 -5 0 -11 8 -14 11 -4 13 1 10 20 -4 24 -3 25 12 12 14 -12 20
-9 46 21 17 19 46 52 64 73 19 21 34 42 34 47 0 4 10 10 21 13 15 4 20 11 15
22 -5 13 -1 15 15 10 15 -5 22 -2 26 14 3 12 12 21 21 21 12 0 13 3 4 12 -9 9
-9 15 0 26 10 11 9 17 -5 27 -9 6 -14 15 -11 18 4 3 8 32 9 64 1 32 6 89 10
127 l8 69 -29 -6 c-28 -5 -28 -5 -9 11 11 10 21 26 23 37 1 11 3 28 4 37 1 9
4 15 6 13 2 -2 16 1 30 6 18 7 28 6 34 -3 6 -10 8 -9 8 3 0 9 6 22 14 28 11 9
12 6 8 -14 l-4 -25 68 6 c38 4 95 7 126 8 31 1 60 5 64 9 4 4 13 -1 19 -10 10
-14 16 -15 27 -5 11 9 17 9 26 0 9 -9 12 -8 12 4 0 9 9 18 21 21 15 4 19 11
14 25 -5 17 -2 19 15 15 15 -4 20 -1 20 16 0 11 4 21 9 21 5 0 27 15 48 34 21
18 54 47 73 64 30 26 33 32 21 46 -13 15 -12 16 12 12 19 -3 24 -1 20 10 -3 8
-9 11 -14 8 -5 -3 -9 1 -9 9 0 10 -8 13 -25 9 -20 -3 -23 -8 -15 -22 8 -15 6
-17 -10 -13 -26 7 -25 21 2 52 13 14 16 20 8 14 -21 -19 -28 -16 -35 17 -6 25
-9 29 -21 19 -20 -16 -18 5 2 25 20 21 31 20 42 -1z m286 1 c20 -19 21 -35 1
-28 -9 4 -16 -3 -21 -20 -7 -29 -14 -32 -34 -13 -8 6 -5 0 8 -14 27 -31 28
-45 2 -52 -16 -4 -18 -2 -10 13 8 14 5 19 -15 22 -18 4 -25 1 -25 -10 0 -12
-3 -13 -12 -4 -8 8 -8 15 2 27 7 8 9 15 6 15 -4 0 -4 6 1 13 4 6 8 18 10 26 2
16 24 32 34 25 4 -2 10 0 14 6 9 14 21 12 39 -6z m-174 -14 c0 -5 9 -10 20
-10 13 0 18 -5 14 -15 -4 -8 -15 -15 -25 -15 -17 0 -21 6 -18 26 0 4 -5 11
-13 15 -10 7 -9 9 5 9 9 0 17 -4 17 -10z m50 -1 c0 -5 5 -7 12 -3 7 4 8 3 4
-4 -4 -7 -1 -12 6 -13 9 0 10 -2 1 -5 -6 -3 -21 4 -32 15 -16 16 -18 21 -6 21
8 0 15 -5 15 -11z m166 -18 c-3 -5 1 -11 9 -15 19 -7 19 -20 0 -39 -8 -8 -12
-17 -9 -20 3 -3 0 -8 -7 -13 -7 -4 -10 -3 -5 4 3 6 2 13 -4 17 -5 3 -10 -1
-10 -10 0 -9 -6 -15 -12 -12 -8 2 -13 20 -13 42 0 29 4 39 18 41 11 1 21 5 25
8 8 9 14 7 8 -3z m-226 -42 c0 -5 -4 -9 -10 -9 -5 0 -10 7 -10 16 0 8 5 12 10
9 6 -3 10 -10 10 -16z m60 -1 c0 -16 -3 -19 -11 -11 -6 6 -8 16 -5 22 11 17
16 13 16 -11z m-235 -38 c3 -6 -1 -7 -9 -4 -18 7 -21 14 -7 14 6 0 13 -4 16
-10z m-60 -30 c3 -5 1 -10 -4 -10 -6 0 -11 5 -11 10 0 6 2 10 4 10 3 0 8 -4
11 -10z m90 0 c-3 -5 -11 -10 -16 -10 -6 0 -7 5 -4 10 3 6 11 10 16 10 6 0 7
-4 4 -10z m350 0 c3 -5 2 -10 -4 -10 -5 0 -13 5 -16 10 -3 6 -2 10 4 10 5 0
13 -4 16 -10z m85 0 c0 -5 -5 -10 -11 -10 -5 0 -7 5 -4 10 3 6 8 10 11 10 2 0
4 -4 4 -10z m-374 -12 c5 -7 3 -8 -6 -3 -10 6 -12 4 -6 -11 5 -14 4 -16 -5 -7
-6 6 -8 16 -5 22 9 14 13 14 22 -1z m225 -20 c-10 -11 -11 -9 -5 6 6 15 4 17
-6 11 -9 -6 -11 -4 -5 4 5 9 10 10 18 2 8 -8 7 -14 -2 -23z m-411 -7 c0 -6 -4
-12 -8 -15 -5 -3 -9 1 -9 9 0 8 4 15 9 15 4 0 8 -4 8 -9z m597 -6 c0 -8 -4
-12 -9 -9 -4 3 -8 9 -8 15 0 5 4 9 8 9 5 0 9 -7 9 -15z m-957 -36 c0 -5 -4 -9
-8 -9 -5 0 -9 -7 -9 -15 0 -8 4 -15 9 -15 4 0 8 -7 8 -16 0 -8 -4 -13 -9 -9
-5 3 -13 0 -17 -6 -5 -9 -1 -10 14 -7 27 8 61 -15 42 -27 -8 -5 -15 -4 -18 3
-2 8 -8 8 -22 0 -10 -6 -16 -18 -13 -25 3 -8 -3 -13 -16 -13 -12 0 -24 0 -28
-1 -4 0 -9 4 -11 10 -2 6 7 11 20 12 13 0 17 3 11 6 -7 2 -13 12 -13 21 -1 15
-2 15 -11 -1 -10 -17 -29 -15 -29 4 0 6 5 7 10 4 10 -6 13 5 11 40 -1 18 0 18
12 -3 12 -21 15 -22 26 -8 11 13 11 16 -3 16 -19 0 -23 46 -3 53 17 5 47 -3
47 -14z m66 -6 c4 -12 10 -23 16 -23 5 0 7 -4 3 -10 -3 -5 -13 -6 -23 -3 -14
6 -15 4 -5 -9 7 -8 10 -18 6 -22 -4 -4 0 -4 10 0 10 3 17 1 17 -5 0 -19 -27
-12 -60 15 -23 20 -29 31 -24 48 12 40 51 46 60 9z m60 5 c-11 -16 -12 -26 -5
-41 9 -15 8 -18 -3 -15 -7 3 -13 9 -13 14 0 5 -4 15 -9 23 -7 10 -6 12 4 6 10
-6 12 -4 7 8 -3 9 -1 18 6 21 24 9 28 5 13 -16z m211 5 c3 -7 -6 -17 -18 -23
-17 -10 -20 -9 -14 1 6 9 3 11 -9 6 -10 -4 -15 -3 -11 4 4 5 15 7 26 4 20 -7
27 9 9 18 -6 3 -5 4 2 3 6 -1 13 -7 15 -13z m646 10 c-21 -8 -15 -25 6 -18 11
3 22 1 26 -4 4 -7 -1 -8 -11 -4 -12 5 -15 3 -9 -6 6 -10 3 -11 -14 -2 -28 15
-26 42 3 40 6 0 5 -3 -1 -6z m208 -3 c13 -8 19 -7 19 0 0 6 4 8 10 5 6 -4 2
-15 -9 -27 -11 -11 -17 -26 -14 -34 3 -8 -1 -14 -11 -14 -13 0 -15 4 -8 18 10
19 5 43 -12 54 -17 12 3 9 25 -2z m97 -18 c15 -24 15 -26 -16 -53 -33 -30 -62
-38 -62 -18 0 6 7 8 17 5 10 -4 14 -4 10 0 -4 4 -1 14 6 22 10 13 9 15 -5 9
-10 -3 -20 -2 -23 3 -4 6 -2 10 3 10 6 0 12 11 16 23 7 31 33 30 54 -1z
m-1477 1 c-1 -4 -11 -8 -24 -8 -16 0 -22 -6 -22 -22 0 -13 -3 -23 -7 -23 -23
0 -3 49 24 59 24 9 30 8 29 -6z m462 10 c-7 -2 -19 -2 -25 0 -7 3 -2 5 12 5
14 0 19 -2 13 -5z m780 0 c-7 -2 -19 -2 -25 0 -7 3 -2 5 12 5 14 0 19 -2 13
-5z m486 -17 c14 -16 17 -45 6 -45 -5 0 -10 9 -10 22 0 15 -6 22 -20 23 -32 2
-36 3 -31 13 7 11 42 3 55 -13z m-1334 4 c-3 -5 -2 -10 3 -10 5 0 9 -7 9 -15
0 -11 -4 -12 -14 -4 -16 14 -17 39 -2 39 5 0 7 -4 4 -10z m905 -5 c0 -8 -7
-15 -15 -15 -13 0 -14 3 -3 15 16 18 18 18 18 0z m47 -7 c-3 -8 -6 -5 -6 6 -1
11 2 17 5 13 3 -3 4 -12 1 -19z m259 4 c1 -7 0 -8 -3 -2 -9 19 -21 10 -17 -12
4 -21 4 -21 -5 -3 -4 11 -6 24 -4 28 7 11 26 3 29 -11z m-1142 -8 c3 -8 2 -13
-3 -9 -5 3 -11 2 -14 -2 -2 -5 -2 -2 0 6 2 8 -2 11 -12 7 -8 -3 -15 -1 -15 4
0 16 37 11 44 -6z m796 6 c0 -5 -7 -7 -15 -4 -10 4 -14 1 -12 -7 2 -8 2 -11 0
-6 -3 4 -9 5 -14 2 -5 -4 -6 1 -3 9 7 17 44 22 44 6z m-1213 -17 c2 -5 -7 -15
-21 -21 -13 -6 -27 -20 -31 -32 -8 -26 -30 -21 -29 6 2 45 5 53 22 57 26 6 55
2 59 -10z m318 7 c-3 -5 -1 -10 4 -10 6 0 11 -7 11 -15 0 -9 6 -12 15 -9 10 4
15 0 15 -11 0 -9 7 -23 15 -31 8 -9 15 -23 15 -31 0 -9 -3 -14 -6 -10 -3 3 -5
8 -5 11 1 9 -38 46 -48 46 -5 0 -12 6 -14 13 -4 7 -6 6 -6 -4 -1 -9 -11 -24
-23 -32 l-23 -15 23 1 c12 1 22 7 22 14 0 17 18 16 36 -2 17 -16 19 -14 -31
-30 -8 -2 -15 1 -16 8 0 9 -2 9 -5 0 -4 -8 -15 -9 -37 -2 -42 12 -50 11 -41
-3 4 -7 3 -8 -5 -4 -6 4 -8 12 -5 18 4 6 1 14 -6 18 -8 5 2 7 24 5 48 -5 69 3
61 23 -5 14 19 62 31 62 3 0 2 -4 -1 -10z m1341 -3 c2 -2 5 -18 6 -37 3 -38
-17 -52 -27 -20 -4 12 -18 26 -31 32 -24 11 -29 20 -18 30 6 6 63 2 70 -5z
m-359 -49 c-6 -20 9 -27 49 -24 22 1 30 -3 30 -15 0 -10 -4 -15 -8 -13 -4 3
-24 1 -43 -5 -32 -8 -52 2 -23 11 8 3 4 9 -10 17 -21 11 -22 11 -16 -14 5 -20
3 -24 -10 -20 -9 3 -23 7 -32 10 -14 4 -12 10 12 30 15 13 25 27 21 31 -4 4
-7 2 -7 -4 0 -7 -4 -12 -10 -12 -13 0 -50 -37 -44 -43 3 -3 1 -8 -5 -12 -17
-10 -13 22 4 39 8 8 15 22 15 31 0 10 5 15 13 12 7 -3 19 4 26 16 13 20 14 20
28 1 8 -10 12 -27 10 -36z m-1271 15 c-10 -10 -19 5 -10 18 6 11 8 11 12 0 2
-7 1 -15 -2 -18z m1544 6 c0 -5 -4 -9 -10 -9 -5 0 -10 7 -10 16 0 8 5 12 10 9
6 -3 10 -10 10 -16z m-1573 -29 c-16 -27 -47 -27 -40 -1 5 19 30 32 45 24 4
-2 2 -13 -5 -23z m550 15 c0 -8 -4 -12 -9 -9 -4 3 -8 9 -8 15 0 5 4 9 8 9 5 0
9 -7 9 -15z m503 6 c0 -6 -4 -13 -10 -16 -5 -3 -10 1 -10 9 0 9 5 16 10 16 6
0 10 -4 10 -9z m573 -22 c3 -10 2 -21 -2 -24 -10 -6 -53 39 -46 47 12 11 43
-4 48 -23z m-1589 -50 c-20 -22 -35 -25 -31 -6 1 7 -6 11 -18 9 -14 -3 -17 -1
-10 7 6 6 23 12 37 13 15 1 24 6 22 10 -3 5 -10 6 -15 3 -10 -7 -12 8 -2 18 3
4 13 -2 21 -14 12 -18 12 -22 -4 -40z m1534 33 c-2 -11 3 -16 14 -14 9 1 20
-2 23 -8 4 -7 0 -10 -11 -8 -11 2 -18 -2 -16 -9 3 -19 -12 -16 -32 6 -15 16
-15 22 -5 39 15 23 31 19 27 -6z m-1608 -22 c0 -5 -7 -10 -16 -10 -8 0 -12 5
-9 10 3 6 10 10 16 10 5 0 9 -4 9 -10z m1685 0 c3 -5 -1 -10 -9 -10 -9 0 -16
5 -16 10 0 6 4 10 9 10 6 0 13 -4 16 -10z m-1650 -31 c-3 -12 0 -29 5 -38 8
-14 10 -14 11 -1 1 8 1 19 0 23 -1 5 3 7 9 5 7 -2 11 -7 11 -11 -1 -4 -1 -16
-1 -28 0 -13 -5 -19 -13 -16 -7 3 -19 -3 -25 -13 -8 -14 -8 -20 0 -22 7 -3 8
-10 3 -18 -6 -10 -10 -10 -20 4 -7 9 -12 25 -10 34 1 9 0 11 -2 5 -5 -14 -33
-18 -33 -5 0 5 -7 9 -15 9 -8 0 -15 -4 -15 -9 0 -4 -4 -8 -9 -8 -11 0 -19 30
-14 48 6 17 53 15 53 -3 0 -9 6 -12 15 -9 21 8 19 19 -7 32 -21 11 -21 12 -3
11 35 -2 46 1 41 10 -4 5 0 12 6 14 7 3 14 6 15 6 1 1 0 -9 -2 -20z m1609 0
c-5 -9 6 -12 41 -10 18 1 18 0 -2 -11 -27 -13 -29 -24 -8 -32 9 -3 15 0 15 9
0 18 47 20 53 3 5 -18 -3 -48 -14 -48 -5 0 -9 4 -9 8 0 5 -7 9 -15 9 -8 0 -15
-4 -15 -9 0 -13 -28 -9 -33 5 -2 6 -3 4 -2 -5 2 -9 -3 -25 -10 -34 -10 -14
-14 -14 -20 -4 -5 8 -4 15 3 18 8 2 8 8 0 22 -6 10 -17 16 -23 13 -7 -2 -15 3
-19 13 -5 13 -2 15 14 11 11 -3 20 -1 20 4 0 5 8 9 18 9 14 0 14 2 3 9 -19 12
-23 41 -5 34 8 -3 11 -9 8 -14z m-1674 6 c0 -7 -30 -13 -34 -7 -3 4 4 9 15 9
10 1 19 0 19 -2z m1640 -25 c0 -5 -7 -10 -16 -10 -8 0 -12 5 -9 10 3 6 10 10
16 10 5 0 9 -4 9 -10z m-1616 -101 c27 -32 34 -59 15 -59 -6 0 -9 6 -6 14 3 8
-2 16 -14 19 -15 4 -19 2 -15 -8 3 -8 1 -17 -4 -20 -6 -4 -10 -2 -10 3 0 6
-11 13 -24 16 -28 7 -29 32 -1 52 26 19 30 18 59 -17z m1731 17 c28 -20 27
-45 -1 -52 -13 -3 -24 -10 -24 -16 0 -5 -4 -7 -10 -3 -5 3 -7 12 -4 20 4 10 0
12 -15 8 -12 -3 -17 -11 -14 -19 3 -8 0 -14 -6 -14 -6 0 -11 7 -11 16 0 8 -4
12 -10 9 -8 -5 -8 -22 -1 -79 0 -4 8 -6 16 -2 8 3 22 3 30 0 19 -8 20 -44 0
-44 -9 0 -12 -6 -9 -15 4 -10 0 -15 -11 -15 -9 0 -23 -7 -31 -15 -17 -17 -49
-21 -39 -4 4 6 9 8 12 5 6 -6 43 31 43 44 0 6 5 10 12 10 6 0 8 3 4 7 -4 4
-18 -6 -31 -21 -17 -20 -26 -25 -29 -15 -2 8 -7 22 -10 32 -3 10 0 17 7 18 9
0 9 2 0 5 -8 4 -8 15 -2 40 6 19 7 39 4 44 -3 6 1 7 9 4 9 -4 16 -1 16 6 0 6
5 10 12 8 7 -3 23 8 36 24 27 32 31 33 57 14z m-1648 -61 c5 -4 2 -5 -4 -1
-15 9 -16 1 -4 -42 9 -29 -2 -48 -11 -20 -3 8 -10 3 -17 -11 -13 -23 -12 -23
13 -17 26 6 26 7 10 -41 -5 -16 -9 -14 -29 12 -13 16 -27 26 -31 22 -4 -4 -2
-7 4 -7 7 0 12 -4 12 -10 0 -13 37 -50 43 -44 3 3 8 1 12 -5 10 -17 -22 -13
-39 4 -8 8 -22 15 -31 15 -9 0 -15 6 -13 12 3 7 -5 20 -16 29 -20 16 -20 16 3
28 12 7 29 10 36 7 16 -6 24 12 21 51 -1 23 2 29 16 28 10 -1 21 -5 25 -10z
m-132 -19 c11 -7 23 -14 27 -15 4 -1 18 -6 30 -11 21 -8 21 -9 3 -9 -11 0 -27
4 -35 9 -10 6 -22 4 -37 -6 -24 -15 -29 -9 -13 16 6 9 5 17 -3 22 -7 4 -7 8
-2 8 6 0 19 -6 30 -14z m1736 -33 c-6 -10 -11 -13 -11 -6 0 7 -8 10 -17 7 -10
-3 -7 1 7 9 30 18 36 15 21 -10z m-1724 -19 c-3 -3 -12 -4 -19 -1 -8 3 -5 6 6
6 11 1 17 -2 13 -5z m1770 0 c-3 -3 -12 -4 -19 -1 -8 3 -5 6 6 6 11 1 17 -2
13 -5z m-1758 -57 c8 -10 7 -14 -2 -14 -7 0 -18 6 -25 14 -10 10 -10 13 1 13
8 0 20 -6 26 -13z m1749 0 c-7 -8 -18 -14 -25 -14 -9 0 -10 4 -2 14 6 7 18 13
26 13 11 0 11 -3 1 -13z m-1764 -42 c-4 -10 -1 -14 7 -12 8 2 11 2 6 0 -4 -3
-5 -9 -2 -14 4 -5 -1 -6 -9 -3 -17 7 -22 44 -6 44 5 0 7 -7 4 -15z m1766 -4
c0 -10 -7 -22 -16 -25 -8 -3 -13 -2 -9 3 3 5 2 11 -2 14 -5 2 -2 2 6 0 8 -2
11 2 7 12 -3 8 -1 15 4 15 6 0 10 -9 10 -19z m17 -23 c-3 -7 -5 -2 -5 12 0 14
2 19 5 13 2 -7 2 -19 0 -25z m-1794 -25 c-5 -11 -3 -14 6 -8 10 6 11 3 1 -14
-12 -23 -32 -24 -36 -3 -1 7 0 8 3 2 8 -17 26 -11 19 6 -3 9 -4 20 0 25 9 15
14 10 7 -8z m1782 -14 c-7 -20 9 -27 18 -9 3 6 4 5 3 -2 -4 -21 -24 -20 -36 3
-10 17 -9 20 1 14 9 -6 11 -3 6 9 -4 10 -3 15 4 11 5 -4 7 -15 4 -26z m-1811
-40 c3 -3 -4 -5 -14 -6 -11 -1 -20 2 -20 7 0 8 25 8 34 -1z m1866 1 c0 -5 -4
-10 -9 -10 -6 0 -13 5 -16 10 -3 6 1 10 9 10 9 0 16 -4 16 -10z m-1920 -40 c0
-5 -2 -10 -4 -10 -3 0 -8 5 -11 10 -3 6 -1 10 4 10 6 0 11 -4 11 -10z m150 -5
c10 -12 10 -15 -4 -15 -9 0 -16 7 -16 15 0 8 2 15 4 15 2 0 9 -7 16 -15z
m1810 11 c0 -3 -4 -8 -10 -11 -5 -3 -10 -1 -10 4 0 6 5 11 10 11 6 0 10 -2 10
-4z m-150 -16 c0 -5 -7 -10 -16 -10 -8 0 -12 5 -9 10 3 6 10 10 16 10 5 0 9
-4 9 -10z m-1877 -35 c11 -11 17 -11 19 -3 3 7 7 5 11 -6 4 -9 3 -15 -2 -11
-5 3 -12 1 -16 -5 -3 -5 1 -10 10 -10 9 0 15 -6 13 -12 -3 -8 -21 -13 -43 -13
-30 0 -39 4 -41 19 -3 22 12 56 26 56 5 0 15 -7 23 -15z m59 -47 c-7 -7 -12
-8 -12 -2 0 14 12 26 19 19 2 -3 -1 -11 -7 -17z m1968 1 c0 -6 -4 -7 -10 -4
-5 3 -10 11 -10 16 0 6 5 7 10 4 6 -3 10 -11 10 -16z m134 -5 c9 -8 16 -19 16
-24 0 -12 -32 -28 -46 -23 -6 2 -11 -3 -11 -12 0 -18 2 -18 27 -5 16 8 18 8
14 -5 -4 -8 -10 -16 -15 -16 -12 -2 -28 -6 -34 -9 -3 -1 -10 -3 -17 -4 -19 -2
-21 -26 -2 -26 14 0 15 -3 6 -12 -8 -8 -16 -5 -31 13 -14 17 -16 25 -7 27 8 2
11 12 8 27 -3 20 -8 23 -22 15 -15 -8 -17 -6 -13 10 7 26 21 25 52 -2 14 -13
20 -16 14 -8 -19 21 -16 28 17 35 25 6 29 9 19 21 -16 20 5 18 25 -2z m-2069
-44 c4 -6 -1 -7 -11 -3 -13 5 -15 3 -9 -7 5 -9 4 -11 -4 -6 -6 4 -9 12 -6 17
8 12 22 12 30 -1z m1920 1 c3 -5 0 -13 -6 -17 -8 -5 -9 -3 -4 6 6 10 4 12 -9
7 -10 -4 -15 -3 -11 3 8 13 22 13 30 1z m-2105 -72 c0 -5 -4 -9 -10 -9 -5 0
-10 7 -10 16 0 8 5 12 10 9 6 -3 10 -10 10 -16z m34 -15 c-11 -8 -14 -14 -9
-13 25 3 35 -3 35 -21 0 -18 -6 -22 -26 -19 -4 0 -11 -5 -15 -13 -7 -10 -9 -9
-9 4 0 9 6 19 13 22 10 5 10 7 0 12 -16 7 -17 34 -2 34 5 0 7 5 3 12 -4 7 -3
8 4 4 7 -4 12 -1 13 6 0 11 2 11 6 0 3 -7 -3 -20 -13 -28z m2198 22 c6 4 8 2
4 -4 -3 -5 0 -12 6 -15 11 -3 11 -9 0 -26 -7 -12 -8 -21 -2 -21 5 0 10 -8 10
-17 0 -14 -2 -15 -9 -5 -4 8 -11 13 -15 13 -20 -3 -26 1 -26 19 0 18 10 24 35
21 6 -1 2 5 -7 12 -10 8 -18 20 -17 28 0 10 2 11 6 1 2 -6 10 -9 15 -6z m44
-13 c-10 -10 -19 5 -10 18 6 11 8 11 12 0 2 -7 1 -15 -2 -18z m-2306 -3 c0 -6
-10 -15 -22 -20 -13 -5 -18 -9 -12 -9 7 -1 14 -9 18 -18 3 -10 9 -24 12 -30 8
-18 -22 -16 -40 3 -20 20 -20 48 0 68 17 18 44 21 44 6z m2364 -6 c9 -8 16
-24 16 -34 0 -22 -26 -50 -46 -50 -22 0 -17 21 7 27 16 4 18 8 7 14 -11 8 -11
10 0 18 11 6 9 10 -7 14 -12 3 -21 10 -21 16 0 16 26 13 44 -5z m43 -56 c-9
-19 -17 -26 -22 -18 -4 6 1 18 11 26 19 14 19 14 0 28 -10 8 -15 20 -11 26 5
8 12 4 22 -10 13 -19 13 -25 0 -52z m-2287 52 c0 -5 -4 -10 -9 -10 -6 0 -13 5
-16 10 -3 6 1 10 9 10 9 0 16 -4 16 -10z m-95 -30 c0 -27 -20 -38 -28 -15 -8
20 3 47 17 42 6 -2 11 -14 11 -27z m2299 15 c7 -18 -2 -45 -15 -45 -13 0 -22
27 -15 45 3 8 10 15 15 15 5 0 11 -7 15 -15z m-99 -45 c3 -5 -1 -10 -9 -10 -9
0 -16 5 -16 10 0 6 4 10 9 10 6 0 13 -4 16 -10z m-2195 -19 c0 -6 -4 -13 -10
-16 -5 -3 -10 1 -10 9 0 9 5 16 10 16 6 0 10 -4 10 -9z m2236 -3 c4 -6 3 -8
-4 -4 -5 3 -13 0 -15 -6 -3 -8 -6 -6 -6 5 -1 19 14 23 25 5z m44 -4 c0 -8 -4
-12 -10 -9 -5 3 -10 10 -10 16 0 5 5 9 10 9 6 0 10 -7 10 -16z m-2116 -56 c-5
-8 -1 -9 12 -4 14 5 16 4 7 -5 -13 -13 -37 -3 -28 12 4 5 8 9 11 9 3 0 2 -5
-2 -12z m1937 -11 c-8 -8 -14 -7 -23 2 -11 10 -9 11 6 5 15 -6 17 -4 11 6 -6
9 -4 11 4 5 9 -5 10 -10 2 -18z m115 -51 c3 -22 -12 -56 -26 -56 -5 0 -15 7
-23 15 -8 8 -17 12 -20 9 -3 -3 -8 0 -13 7 -4 7 -3 10 4 5 6 -3 13 -2 17 4 3
5 -1 10 -9 10 -16 0 -21 12 -10 23 4 3 22 5 42 4 26 -1 36 -7 38 -21z m-2056
-7 c0 -6 -4 -7 -10 -4 -5 3 -10 11 -10 16 0 6 5 7 10 4 6 -3 10 -11 10 -16z
m1952 -1 c-7 -7 -12 -8 -12 -2 0 14 12 26 19 19 2 -3 -1 -11 -7 -17z m-1792
-62 c0 -2 -7 -9 -15 -16 -12 -10 -15 -10 -15 4 0 9 7 16 15 16 8 0 15 -2 15
-4z m1650 -6 c0 -5 -4 -10 -9 -10 -6 0 -13 5 -16 10 -3 6 1 10 9 10 9 0 16 -4
16 -10z m-1810 -10 c0 -5 -5 -10 -11 -10 -5 0 -7 5 -4 10 3 6 8 10 11 10 2 0
4 -4 4 -10z m45 -40 c3 -5 -1 -10 -9 -10 -9 0 -16 5 -16 10 0 6 4 10 9 10 6 0
13 -4 16 -10z m1875 0 c0 -4 -7 -7 -15 -6 -23 3 -26 12 -5 13 11 1 20 -2 20
-7z m-1829 -31 c9 -17 8 -20 -2 -14 -9 6 -11 3 -6 -9 4 -10 3 -15 -4 -11 -5 4
-7 15 -4 26 4 11 2 19 -4 19 -6 0 -11 -5 -11 -12 0 -6 -3 -9 -6 -5 -8 7 4 27
16 27 5 0 14 -10 21 -21z m1795 3 c1 -7 0 -8 -3 -2 -9 18 -25 11 -18 -9 3 -11
1 -22 -4 -26 -7 -4 -8 1 -4 11 5 12 3 15 -6 9 -10 -6 -11 -3 -1 14 12 23 32
24 36 3z m-1780 -51 c-4 -5 -3 -11 1 -14 5 -2 2 -2 -6 0 -8 2 -11 -2 -7 -12 3
-8 1 -15 -4 -15 -15 0 -12 37 3 43 18 8 19 8 13 -2z m1754 -22 c0 -10 -4 -19
-10 -19 -5 0 -7 7 -4 15 4 10 1 14 -7 12 -8 -2 -11 -2 -6 0 4 3 5 9 2 14 -4 5
1 6 9 3 9 -3 16 -15 16 -25z m-1649 -12 c-7 -9 -8 -24 -1 -45 6 -23 5 -32 -3
-33 -9 0 -9 -2 0 -5 8 -4 9 -15 2 -37 -12 -42 -11 -50 3 -41 7 4 8 3 4 -5 -4
-6 -12 -8 -18 -5 -6 4 -14 1 -18 -6 -5 -8 -7 2 -5 24 4 46 -2 66 -20 60 -7 -3
-24 0 -36 7 -23 12 -23 12 -3 28 11 9 19 22 16 29 -2 6 4 12 13 12 9 0 23 7
31 15 20 19 51 21 35 2z m1553 -2 c8 -8 22 -15 31 -15 11 0 15 -5 11 -15 -3
-9 0 -15 9 -15 8 0 15 -9 15 -19 0 -21 -22 -33 -44 -25 -17 6 -25 -13 -22 -53
1 -23 -2 -29 -16 -28 -10 1 -21 5 -25 10 -5 4 -2 5 5 1 14 -9 15 -1 3 42 -9
29 2 48 11 20 3 -8 9 -4 17 10 6 12 19 22 29 23 10 0 12 3 5 6 -7 2 -13 9 -13
14 0 12 -37 49 -43 43 -3 -3 -8 -1 -12 5 -10 17 22 13 39 -4z m-1664 -30 c0
-8 -7 -15 -15 -15 -13 0 -14 3 -3 15 16 18 18 18 18 0z m1670 -23 c0 -10 -23
-22 -41 -22 -4 0 -6 7 -4 15 16 50 14 48 30 31 8 -8 15 -19 15 -24z m91 24 c5
3 9 0 9 -5 0 -6 -7 -11 -15 -11 -8 0 -15 8 -14 18 0 10 3 12 6 4 2 -6 9 -10
14 -6z m9 -62 c0 -8 -19 -13 -24 -6 -3 5 1 9 9 9 8 0 15 -2 15 -3z m-1758 -23
c14 8 18 6 18 -7 0 -10 -6 -14 -14 -11 -8 3 -23 -3 -34 -14 -12 -11 -23 -15
-27 -9 -3 6 -1 10 5 10 7 0 8 6 0 19 -15 29 -12 34 12 17 15 -11 26 -12 40 -5z
m1768 -10 c-8 -16 -8 -21 1 -21 7 0 10 -3 7 -6 -4 -3 -17 0 -30 7 -12 7 -27
13 -32 14 -5 0 -11 6 -14 13 -3 11 0 12 15 3 15 -8 25 -7 39 4 24 17 29 12 14
-14z m-1720 -36 c0 -8 -13 -29 -29 -47 -27 -31 -29 -31 -53 -16 -33 22 -31 45
5 58 38 13 37 13 31 -4 -4 -11 0 -13 15 -9 12 3 17 11 14 19 -3 8 0 14 6 14 6
0 11 -7 11 -15z m1637 1 c-3 -8 2 -16 14 -19 15 -4 19 -2 15 8 -3 8 -1 17 4
20 6 4 10 2 10 -3 0 -6 11 -12 23 -16 31 -7 30 -33 -1 -54 -24 -15 -26 -15
-53 16 -30 33 -38 62 -18 62 6 0 9 -6 6 -14z m-1624 -63 c-9 -3 -10 -9 -1 -23
6 -10 18 -16 25 -13 7 3 13 1 14 -3 0 -5 2 -19 5 -31 3 -16 -1 -23 -12 -23
-11 0 -14 5 -10 16 5 12 2 15 -10 10 -8 -3 -21 -6 -27 -6 -7 0 -4 -5 6 -11 17
-10 15 -29 -4 -29 -6 0 -7 5 -4 10 6 10 -4 13 -40 11 -18 -1 -18 0 3 11 26 13
28 24 7 32 -9 3 -15 0 -15 -9 0 -18 -47 -20 -53 -2 -5 17 3 47 14 47 5 0 9 -4
9 -8 0 -5 7 -9 15 -9 8 0 15 4 15 9 0 13 28 9 33 -4 2 -7 3 -6 2 3 -1 9 2 24
7 34 8 13 13 14 22 5 8 -9 8 -14 -1 -17z m1619 -25 c-3 -15 -2 -19 7 -14 6 4
9 12 6 17 -4 5 1 9 9 9 9 0 16 -4 16 -8 0 -5 7 -9 15 -9 8 0 15 4 15 9 0 4 4
8 9 8 11 0 19 -30 14 -47 -6 -18 -53 -16 -53 2 0 9 -6 12 -15 9 -21 -8 -19
-19 8 -32 20 -11 20 -12 2 -11 -36 2 -46 -1 -40 -11 3 -5 2 -10 -4 -10 -19 0
-21 19 -4 29 17 10 17 10 1 11 -10 0 -18 6 -18 13 0 8 -3 7 -9 -3 -6 -8 -7
-18 -4 -23 3 -5 0 -8 -8 -5 -13 4 -14 13 -10 49 0 6 7 9 14 6 7 -3 19 3 25 13
8 14 8 20 0 22 -7 3 -8 10 -3 18 12 19 35 -15 27 -42z m-1672 -85 c0 -3 -9 -3
-20 0 -22 6 -28 -8 -7 -16 9 -4 9 -6 0 -6 -15 -1 -26 16 -19 28 6 9 46 3 46
-6z m92 -10 c10 -9 18 -20 18 -24 0 -6 -22 -5 -40 1 -6 3 -22 6 -34 8 -9 2 23
31 33 32 3 0 13 -7 23 -17z m1562 2 c11 -8 16 -16 10 -17 -12 -2 -28 -5 -34
-8 -16 -6 -40 -7 -40 -2 0 8 32 42 39 42 3 0 15 -7 25 -15z m-1477 -19 c-3 -7
3 -18 13 -24 14 -8 20 -8 22 0 3 7 10 8 18 3 19 -12 -14 -34 -43 -28 -22 4
-22 4 -2 -12 12 -9 16 -19 10 -23 -14 -10 -17 -32 -5 -32 6 0 10 -4 10 -9 0
-11 -30 -19 -47 -14 -18 6 -16 53 2 53 9 0 12 6 9 15 -8 21 -19 19 -32 -7 -11
-21 -12 -21 -11 -3 2 36 -1 46 -11 40 -5 -3 -10 0 -11 7 0 10 -2 10 -6 0 -5
-12 -23 -7 -23 7 0 14 51 6 60 -9 8 -13 10 -12 10 2 0 9 6 19 13 21 6 3 2 6
-10 6 -22 1 -29 11 -18 23 10 10 56 -5 52 -16z m98 14 c-8 -12 1 -13 43 -1 23
7 32 6 33 -2 0 -9 2 -9 5 0 3 7 13 9 22 6 9 -2 23 -7 31 -9 10 -3 5 -12 -15
-29 -15 -13 -25 -27 -21 -31 4 -4 7 -2 7 4 0 7 5 12 10 12 11 0 51 38 48 44
-2 2 0 8 5 12 4 4 7 0 7 -9 0 -8 -7 -22 -15 -31 -8 -8 -15 -22 -15 -31 0 -11
-5 -15 -15 -11 -9 3 -15 0 -15 -9 0 -22 -38 -18 -45 5 -3 11 -4 24 -1 29 9 13
-17 20 -60 16 -21 -2 -32 0 -25 4 7 4 11 12 10 17 -2 14 0 24 7 24 3 0 2 -4
-1 -10z m986 -4 c-1 -9 38 -46 49 -46 6 0 10 -5 10 -12 0 -6 3 -8 7 -4 4 4 -5
17 -20 31 -18 15 -24 26 -17 30 6 4 14 4 17 1 3 -3 12 -1 20 6 12 10 13 7 7
-16 -6 -27 -6 -28 17 -15 14 7 19 14 11 17 -28 9 -9 20 20 11 43 -12 51 -11
42 3 -4 7 -3 8 5 4 6 -4 8 -12 5 -18 -4 -6 -1 -14 6 -18 8 -5 -2 -7 -24 -5
-43 4 -69 -3 -60 -16 9 -15 -6 -49 -22 -49 -8 0 -17 6 -20 14 -3 8 -12 12 -20
9 -9 -3 -14 1 -14 12 0 9 -7 23 -15 31 -8 9 -15 23 -15 31 0 9 3 14 6 11 3 -4
5 -9 5 -12z m317 -6 c3 -7 0 -10 -5 -7 -5 3 -15 2 -23 -4 -10 -6 -11 -9 -2 -9
6 0 12 -8 12 -17 0 -15 2 -16 10 -3 9 15 60 23 60 9 0 -14 -20 -21 -21 -7 0
10 -2 10 -6 0 -2 -6 -9 -10 -14 -6 -9 5 -12 -6 -10 -41 1 -18 0 -18 -11 3 -13
26 -24 28 -32 7 -3 -9 0 -15 9 -15 18 0 20 -47 3 -53 -18 -5 -48 3 -48 14 0 5
4 9 8 9 5 0 9 7 9 15 0 8 -4 15 -9 15 -4 0 -8 7 -8 16 0 8 4 13 9 9 5 -3 13 0
17 6 5 9 1 10 -14 7 -26 -7 -61 15 -42 27 7 4 15 3 19 -3 4 -7 12 -6 23 2 10
7 15 16 11 20 -10 9 15 24 35 22 9 -2 18 -9 20 -16z m-1558 0 c0 -5 -4 -10 -9
-10 -6 0 -13 5 -16 10 -3 6 1 10 9 10 9 0 16 -4 16 -10z m1675 -6 c-11 -8 -19
-17 -17 -19 8 -15 -1 -33 -18 -38 -11 -3 -20 -1 -20 5 0 17 44 67 60 67 11 0
10 -4 -5 -15z m-441 -34 c8 -17 10 -28 5 -24 -5 3 -17 0 -26 -8 -15 -12 -16
-10 -10 12 4 14 7 31 7 38 0 20 7 14 24 -18z m-1251 6 c3 -7 0 -19 -6 -26 -9
-10 -9 -11 0 -6 15 8 65 -14 60 -28 -3 -10 -65 -11 -74 -2 -6 6 -11 60 -6 69
7 11 20 8 26 -7z m45 2 c7 -7 12 -17 12 -24 0 -19 -38 -4 -43 17 -6 21 12 26
31 7z m1675 -27 c0 -18 -3 -34 -6 -37 -10 -10 -67 -12 -73 -2 -10 15 18 29 33
16 11 -8 12 -7 6 7 -5 15 -3 17 13 11 15 -5 16 -4 7 5 -14 14 -6 42 11 36 6
-2 10 -18 9 -36z m-1396 7 c-3 -8 -6 -5 -6 6 -1 11 2 17 5 13 3 -3 4 -12 1
-19z m-37 1 c0 -6 -7 -8 -17 -5 -10 4 -14 4 -10 0 4 -4 1 -14 -6 -22 -10 -13
-9 -15 5 -9 10 3 20 2 23 -3 4 -6 2 -10 -3 -10 -6 0 -12 -10 -16 -23 -7 -31
-33 -30 -54 1 -15 24 -15 26 16 53 33 30 62 38 62 18z m316 -16 c-10 -10 -19
5 -10 18 6 11 8 11 12 0 2 -7 1 -15 -2 -18z m504 6 c0 -5 -4 -9 -8 -9 -5 0 -9
7 -9 15 0 8 4 12 9 9 4 -3 8 -9 8 -15z m280 -8 c9 -19 9 -22 -1 -19 -7 2 -14
15 -16 28 -4 27 -1 25 17 -9z m82 0 c31 -27 31 -29 16 -53 -22 -33 -45 -31
-58 5 -13 38 -13 37 4 31 11 -4 13 0 9 15 -3 12 -11 17 -19 14 -8 -3 -14 0
-14 6 0 20 29 12 62 -18z m-1507 -24 c0 -17 5 -21 23 -20 14 2 22 -3 22 -12 0
-11 -6 -12 -22 -6 -24 9 -50 49 -41 64 8 13 18 -2 18 -26z m125 17 c0 -8 -4
-12 -10 -9 -5 3 -10 10 -10 16 0 5 5 9 10 9 6 0 10 -7 10 -16z m1540 7 c0 -6
-4 -13 -10 -16 -5 -3 -10 1 -10 9 0 9 5 16 10 16 6 0 10 -4 10 -9z m-1305 -11
c-3 -5 -11 -10 -16 -10 -6 0 -7 5 -4 10 3 6 11 10 16 10 6 0 7 -4 4 -10z
m1428 -7 c-9 -27 -22 -40 -43 -46 -13 -3 -20 0 -20 9 0 8 9 13 23 11 17 -2 22
3 20 21 -2 14 3 22 12 22 9 0 12 -6 8 -17z m-1336 -8 c0 -8 -4 -15 -9 -15 -5
0 -6 -4 -3 -10 3 -5 1 -10 -4 -10 -15 0 -14 23 1 38 15 15 15 15 15 -3z m54 0
c5 4 6 -1 3 -9 -7 -17 -44 -22 -44 -6 0 5 7 7 15 4 10 -4 14 -1 12 7 -2 8 -2
11 0 6 3 -4 9 -5 14 -2z m775 -1 c-4 -12 -2 -15 9 -10 8 3 15 1 15 -4 0 -16
-37 -11 -44 6 -3 8 -2 12 4 9 6 -3 10 -1 10 4 0 6 3 11 6 11 3 0 3 -7 0 -16z
m351 -13 c0 -11 -5 -18 -9 -15 -4 3 -5 11 -1 19 7 21 12 19 10 -4z m-1247 -7
c0 -8 -5 -12 -10 -9 -6 4 -8 11 -5 16 9 14 15 11 15 -7z m187 -17 c-2 -6 -10
-12 -18 -15 -12 -3 -12 -2 1 7 21 15 5 24 -20 11 -11 -6 -31 -9 -43 -7 -18 3
-17 5 6 6 16 0 25 5 22 11 -4 6 1 7 11 3 12 -5 15 -3 9 6 -6 10 -3 11 14 1 12
-6 21 -16 18 -23z m657 21 c-5 -8 -2 -9 12 -4 10 4 15 3 10 -1 -4 -4 -19 -8
-33 -8 -23 -1 -23 0 -7 12 22 16 27 16 18 1z m116 -3 c0 -8 -5 -15 -11 -15 -5
0 -8 4 -5 9 4 5 0 12 -6 14 -8 3 -6 6 5 6 9 1 17 -6 17 -14z m55 6 c3 -5 2
-12 -3 -15 -5 -3 -9 1 -9 9 0 17 3 19 12 6z m55 -35 c0 -7 -3 -6 -8 1 -5 8
-13 9 -22 3 -26 -17 -31 -11 -13 16 16 25 17 25 30 8 7 -10 13 -23 13 -28z
m-1350 24 c0 -5 -5 -10 -11 -10 -5 0 -7 5 -4 10 3 6 8 10 11 10 2 0 4 -4 4
-10z m1575 0 c3 -5 1 -10 -4 -10 -6 0 -11 5 -11 10 0 6 2 10 4 10 3 0 8 -4 11
-10z m-485 -46 c0 -8 -4 -14 -9 -14 -6 0 -9 9 -8 19 1 22 17 18 17 -5z m-600
-5 c0 -5 -4 -9 -8 -9 -5 0 -9 7 -9 15 0 8 4 12 9 9 4 -3 8 -9 8 -15z m173 -16
c-5 -12 -3 -14 7 -8 9 6 11 4 5 -4 -5 -9 -11 -9 -17 -3 -6 6 -7 15 -4 21 11
17 16 13 9 -6z m240 -14 c-8 -8 -13 -7 -18 2 -6 8 -4 10 5 4 10 -6 12 -4 6 11
-6 15 -5 17 5 7 9 -10 10 -16 2 -24z m-373 -3 c0 -3 -4 -8 -10 -11 -5 -3 -10
-1 -10 4 0 6 5 11 10 11 6 0 10 -2 10 -4z m85 -6 c3 -5 2 -10 -4 -10 -5 0 -13
5 -16 10 -3 6 -2 10 4 10 5 0 13 -4 16 -10z m350 0 c-3 -5 -11 -10 -16 -10 -6
0 -7 5 -4 10 3 6 11 10 16 10 6 0 7 -4 4 -10z m85 0 c0 -5 -2 -10 -4 -10 -3 0
-8 5 -11 10 -3 6 -1 10 4 10 6 0 11 -4 11 -10z m-465 -30 c-3 -5 -12 -10 -18
-10 -7 0 -6 4 3 10 19 12 23 12 15 0z m375 -6 c0 -8 5 -12 10 -9 6 4 8 11 5
16 -4 5 2 6 11 2 11 -4 13 -8 6 -11 -8 -2 -8 -8 3 -19 20 -19 19 -30 -3 -42
-32 -17 -57 -7 -59 25 -1 16 0 35 2 42 6 17 25 15 25 -4z m-200 -33 c0 -6 -4
-13 -10 -16 -5 -3 -10 1 -10 9 0 9 5 16 10 16 6 0 10 -4 10 -9z m60 -4 c0 -8
-3 -17 -7 -21 -11 -11 -10 -30 2 -38 6 -5 3 -8 -7 -8 -9 0 -19 6 -22 13 -5 10
-7 10 -12 0 -3 -7 -13 -13 -22 -13 -13 0 -14 2 -4 9 8 4 13 11 13 15 -3 21 2
26 24 26 18 0 23 4 19 15 -4 8 -1 15 5 15 6 0 11 -6 11 -13z m-80 -36 c0 -6
-5 -13 -12 -17 -6 -4 -8 -3 -4 4 3 5 0 13 -6 15 -8 3 -6 6 5 6 9 1 17 -3 17
-8z m102 2 c-6 -2 -9 -10 -6 -15 4 -7 2 -8 -4 -4 -18 11 -14 26 6 25 10 0 12
-3 4 -6z m-102 -53 c0 -5 -7 -10 -16 -10 -8 0 -12 5 -9 10 3 6 10 10 16 10 5
0 9 -4 9 -10z m66 -1 c6 -10 -11 -29 -26 -29 -15 0 -32 19 -26 29 9 14 43 14
52 0z m39 1 c3 -5 -1 -10 -9 -10 -9 0 -16 5 -16 10 0 6 4 10 9 10 6 0 13 -4
16 -10z m-85 -42 c5 -13 9 -18 9 -12 1 7 9 14 19 18 9 3 23 9 30 12 17 8 15
-22 -4 -40 -8 -9 -24 -16 -34 -16 -22 0 -50 26 -50 46 0 22 20 17 30 -8z m6
-55 c13 -17 15 -17 28 1 8 10 20 15 26 11 7 -5 2 -12 -14 -20 -21 -11 -30 -12
-51 -1 -14 7 -22 16 -18 19 10 10 15 9 29 -10z"/>
<path d="M1459 1723 c-13 -14 -18 -23 -12 -19 9 5 11 2 7 -8 -4 -10 0 -14 15
-13 23 1 29 22 9 30 -10 4 -9 8 2 16 8 5 12 12 9 15 -3 3 -16 -6 -30 -21z"/>
<path d="M1123 1715 c-7 -8 -13 -20 -13 -27 0 -9 3 -9 10 2 6 10 10 11 10 3 0
-7 5 -13 11 -13 6 0 8 7 5 16 -4 10 -2 13 7 8 8 -5 7 -2 -2 9 -16 20 -13 20
-28 2z"/>
<path d="M1157 1675 c-4 -8 -13 -12 -22 -9 -17 7 -16 9 -19 -93 -1 -40 -5 -76
-9 -80 -4 -4 -40 -8 -80 -9 -101 -3 -100 -2 -93 -19 3 -8 -1 -18 -10 -23 -11
-6 -2 -21 46 -72 33 -35 60 -66 60 -70 0 -4 -27 -35 -60 -70 -53 -56 -58 -64
-43 -75 9 -7 13 -17 9 -23 -8 -13 -8 -13 91 -16 40 -1 76 -5 80 -9 4 -4 8 -40
9 -80 3 -99 3 -99 16 -91 6 4 16 0 23 -9 11 -15 19 -10 75 43 35 33 66 60 70
60 4 0 35 -27 70 -60 56 -53 64 -58 75 -43 7 9 17 13 23 9 13 -8 13 -9 16 91
2 40 6 76 9 80 4 3 40 7 80 9 100 3 99 3 91 16 -4 6 0 16 9 23 15 11 10 19
-43 75 -33 35 -60 67 -60 71 0 4 27 36 60 70 53 55 58 63 43 74 -9 7 -13 17
-9 23 8 13 8 13 -91 16 -40 1 -76 5 -80 9 -4 4 -8 40 -9 80 -3 99 -3 99 -16
91 -6 -4 -16 0 -23 9 -11 15 -19 10 -75 -43 -35 -33 -67 -60 -70 -60 -4 0 -30
21 -57 48 -75 72 -80 75 -86 57z m20 -29 c-4 -9 5 -19 24 -26 27 -12 28 -14
12 -24 -10 -7 -31 -18 -47 -24 l-29 -13 6 35 c3 22 1 38 -5 43 -8 4 -5 9 8 14
29 12 37 10 31 -5z m286 4 c8 0 8 -3 0 -11 -6 -6 -9 -28 -7 -48 2 -20 2 -30
-2 -23 -3 6 -10 10 -15 7 -4 -3 -20 2 -34 11 -14 9 -25 13 -25 8 0 -4 -3 -5
-6 -1 -6 6 26 45 33 40 2 -2 11 -3 21 -2 10 0 12 3 5 6 -7 2 -13 9 -13 15 0 6
7 7 16 4 9 -3 21 -6 27 -6z m-163 -95 c8 0 21 4 28 9 21 15 13 -8 -14 -37 -18
-19 -32 -26 -45 -22 -21 7 -23 -2 -10 -38 8 -21 7 -24 -15 -23 -13 1 -29 7
-36 14 -17 17 -24 15 -53 -14 -27 -27 -27 -33 1 -71 15 -20 14 -21 -6 -16 -12
3 -19 11 -16 18 5 13 -14 25 -37 25 -7 0 -4 -5 6 -11 9 -6 15 -14 12 -20 -4
-5 5 -13 19 -19 14 -5 26 -12 26 -15 0 -2 -12 0 -26 5 -33 13 -41 7 -39 -29 1
-19 -3 -27 -10 -25 -7 3 -18 -2 -25 -11 -15 -18 -35 -20 -23 -2 10 16 10 39
-1 55 -12 18 4 15 26 -5 25 -22 36 -8 13 17 -21 23 -28 50 -14 50 4 0 6 7 3
15 -6 16 31 36 52 28 7 -2 15 0 19 6 4 7 -4 11 -19 11 -14 0 -28 5 -32 11 -4
8 3 9 26 4 32 -7 32 -7 25 25 -5 23 -4 30 4 26 6 -4 11 -18 11 -32 0 -14 4
-23 8 -20 5 3 8 19 7 35 -2 30 17 47 36 35 5 -3 9 -1 9 5 0 14 27 7 50 -14 28
-25 36 -13 13 21 -13 21 -14 26 -3 19 8 -5 22 -10 30 -10z m90 -17 c0 -5 4 -7
9 -4 15 10 40 -5 34 -20 -3 -8 -9 -11 -14 -8 -5 3 -9 0 -9 -5 0 -6 5 -11 10
-11 6 0 10 -4 10 -10 0 -5 -6 -10 -14 -10 -8 0 -21 -9 -28 -19 -10 -13 -18
-17 -28 -11 -8 5 -18 6 -22 4 -4 -3 -3 7 2 21 14 38 12 48 -7 41 -13 -6 -12
-2 5 17 22 23 52 32 52 15z m75 -49 c-7 -31 -7 -31 25 -24 23 5 30 4 26 -4 -4
-6 -17 -11 -30 -11 -15 0 -27 -9 -35 -26 -7 -16 -17 -24 -25 -21 -8 3 -17 0
-19 -7 -8 -19 16 -86 30 -86 7 0 13 -4 13 -10 0 -5 -6 -10 -14 -10 -14 0 -31
-51 -28 -83 2 -14 -3 -17 -17 -12 -11 3 -22 1 -26 -5 -3 -5 -17 -10 -31 -10
-15 0 -24 -6 -24 -15 0 -8 -4 -15 -10 -15 -5 0 -10 7 -10 15 0 9 -9 15 -23 15
-13 0 -28 5 -33 10 -14 14 -44 2 -37 -16 3 -8 -5 -18 -21 -25 -17 -8 -26 -20
-26 -35 0 -13 -5 -26 -11 -30 -8 -4 -9 3 -4 26 7 32 7 32 -25 25 -23 -5 -30
-4 -26 4 4 6 18 11 32 11 15 0 23 4 19 11 -4 6 -12 8 -19 6 -21 -8 -58 12 -52
29 3 8 2 12 -4 9 -14 -9 -7 30 9 49 10 12 17 13 26 6 8 -7 21 -7 37 -1 21 8
24 6 26 -14 1 -13 -5 -28 -13 -35 -21 -17 -19 -33 6 -48 15 -10 19 -10 14 -1
-5 7 -4 10 3 5 6 -3 14 -1 18 5 5 9 0 10 -15 6 -14 -3 -21 -1 -18 6 2 7 10 12
18 12 20 0 33 25 20 38 -6 6 -11 21 -11 34 0 25 -19 30 -51 13 -10 -6 -19 -7
-19 -2 0 4 16 14 35 22 25 10 35 20 35 35 0 11 5 26 10 31 14 14 2 44 -15 38
-20 -8 -29 16 -12 33 17 17 41 8 33 -12 -6 -17 24 -29 38 -15 5 5 20 10 33 10
14 0 23 6 23 15 0 8 5 15 10 15 6 0 10 -7 10 -15 0 -9 9 -15 23 -15 13 0 28
-5 33 -10 14 -14 44 -2 37 16 -3 8 5 18 21 25 16 8 26 20 26 34 0 20 7 35 17
35 3 0 2 -14 -2 -31z m-175 -14 c0 -8 -2 -15 -4 -15 -2 0 -6 7 -10 15 -3 8 -1
15 4 15 6 0 10 -7 10 -15z m34 0 c-4 -8 -8 -15 -10 -15 -2 0 -4 7 -4 15 0 8 4
15 10 15 5 0 7 -7 4 -15z m-315 -18 c20 2 32 1 26 -4 -5 -4 -11 -15 -13 -23
-1 -8 -8 -25 -14 -37 -8 -16 -13 -19 -23 -10 -10 9 -9 16 2 34 10 15 11 23 4
23 -6 0 -12 -8 -12 -17 -1 -16 -2 -15 -6 1 -4 15 -7 16 -13 5 -12 -19 -20 -7
-13 20 4 15 9 19 16 12 5 -5 26 -7 46 -4z m646 -36 c-3 -3 -10 1 -15 9 -8 12
-10 11 -11 -5 -1 -17 -2 -17 -6 -2 -2 9 -9 17 -15 17 -6 0 -4 -10 5 -23 11
-18 12 -25 2 -34 -10 -9 -15 -6 -23 10 -6 12 -13 29 -14 37 -2 8 -7 19 -13 23
-5 5 7 6 27 2 23 -3 39 -1 44 6 5 9 10 5 16 -11 5 -12 6 -25 3 -29z m-120 -21
c-3 -6 -1 -10 5 -10 6 0 8 -4 5 -10 -3 -5 -1 -10 5 -10 6 0 -2 -11 -17 -24
-15 -13 -25 -28 -21 -32 5 -4 16 0 26 9 22 20 38 23 26 5 -11 -16 -11 -39 -1
-55 12 -18 -3 -16 -25 4 -25 22 -36 8 -13 -17 21 -23 28 -50 14 -50 -6 0 -8
-4 -5 -9 10 -15 -5 -40 -20 -34 -8 3 -11 9 -8 14 3 5 -2 9 -11 9 -9 0 -13 -4
-10 -10 3 -5 1 -10 -4 -10 -6 0 -11 8 -11 17 0 12 -3 14 -10 7 -17 -17 0 -44
25 -44 13 0 27 -5 31 -11 4 -8 -3 -9 -26 -4 -32 7 -32 7 -25 -25 5 -23 4 -30
-4 -26 -6 4 -11 16 -11 27 0 11 -5 30 -11 41 -9 16 -8 19 2 13 8 -5 10 -4 5 3
-11 17 -29 15 -22 -3 6 -17 -9 -21 -19 -5 -9 14 15 42 31 36 20 -8 24 5 8 29
-14 22 -14 23 6 18 13 -3 19 -11 16 -19 -3 -8 -1 -14 3 -14 5 0 18 -3 28 -6
17 -6 17 -6 -1 8 -18 14 -18 15 4 14 13 -1 25 5 27 12 3 6 0 12 -7 12 -6 0 -8
-4 -5 -10 3 -5 0 -8 -7 -5 -69 24 -70 25 -58 40 14 17 40 20 40 5 0 -5 -6 -7
-14 -4 -8 3 -17 1 -21 -5 -3 -6 1 -12 9 -12 9 -1 21 -2 28 -3 7 -1 12 17 13
47 2 48 -2 53 -39 38 -14 -5 -16 -10 -8 -15 7 -4 17 -4 22 -1 6 3 10 1 10 -4
0 -16 -26 -13 -40 4 -10 12 -8 16 15 25 14 5 24 14 20 19 -3 5 -1 13 5 16 6 4
9 1 8 -7 -2 -7 3 -12 10 -10 8 1 11 -2 7 -8 -3 -5 -1 -10 4 -10 15 0 13 11 -4
33 -15 21 -57 15 -49 -7 3 -8 -4 -16 -15 -19 -24 -6 -24 12 2 31 9 7 17 20 17
28 0 8 5 14 11 14 5 0 7 -4 4 -10 -3 -5 1 -10 10 -10 9 0 14 4 11 9 -4 5 0 11
6 14 15 5 32 -19 23 -33z m-395 -86 c0 -2 -7 -4 -15 -4 -8 0 -15 4 -15 10 0 5
7 7 15 4 8 -4 15 -8 15 -10z m-135 -94 c-3 -5 -3 -10 2 -10 4 0 13 -16 19 -36
l12 -36 -34 5 c-20 3 -36 1 -40 -5 -5 -7 -11 -2 -16 12 -10 27 -1 41 12 20 8
-12 10 -11 11 5 1 17 2 17 6 3 2 -10 9 -18 15 -18 6 0 4 10 -4 23 -11 16 -12
25 -4 34 13 15 30 17 21 3z m623 -20 c0 -3 0 -14 1 -25 1 -16 3 -17 11 -5 13
21 22 7 12 -20 -5 -14 -11 -19 -16 -12 -4 6 -22 9 -44 6 -20 -3 -32 -2 -27 3
6 4 12 17 13 28 2 11 8 22 13 23 5 2 9 10 9 18 0 12 3 12 14 2 8 -7 14 -15 14
-18z m-386 -55 c-2 -14 -8 -22 -13 -19 -5 3 -6 11 -3 17 5 8 4 9 -3 2 -6 -5
-14 -21 -18 -35 -7 -24 -7 -24 8 -5 16 20 16 20 11 -1 -3 -12 -1 -25 6 -29 16
-10 26 3 13 16 -8 8 -6 19 4 40 12 24 18 28 29 18 16 -13 19 -39 4 -39 -5 0
-7 6 -4 14 3 8 1 17 -5 21 -6 3 -12 -1 -12 -9 -1 -9 -2 -21 -3 -28 -1 -7 17
-12 47 -13 51 -2 52 -1 36 42 -5 15 -6 24 -1 18 14 -15 33 -77 22 -70 -6 4
-10 1 -10 -5 0 -7 6 -10 13 -7 6 2 12 14 11 27 -1 22 0 22 13 5 13 -19 18 -9
7 19 -3 8 -12 12 -20 9 -8 -3 -14 -1 -14 4 0 20 14 23 31 7 10 -9 25 -14 33
-11 10 4 13 1 9 -9 -3 -7 -9 -14 -14 -14 -5 0 -9 -5 -9 -11 0 -5 5 -7 11 -3 7
4 9 -1 7 -12 -2 -11 -11 -18 -21 -18 -9 1 -17 -2 -17 -8 0 -5 -4 -6 -10 -3 -5
3 -10 1 -10 -5 0 -6 -11 2 -24 17 -13 15 -28 25 -32 21 -4 -5 0 -16 9 -26 20
-22 23 -38 5 -26 -16 11 -39 11 -55 1 -18 -12 -16 3 4 25 22 25 8 36 -17 13
-22 -20 -50 -28 -50 -15 0 4 -8 7 -17 6 -10 0 -19 7 -21 18 -2 11 0 16 7 12 6
-4 11 0 11 9 0 10 -5 14 -12 9 -18 -10 0 8 36 34 35 27 34 27 28 -3z m82 -20
c3 -8 1 -15 -4 -15 -6 0 -10 7 -10 15 0 8 2 15 4 15 2 0 6 -7 10 -15z m-149
-103 c10 -2 28 -10 38 -17 17 -12 16 -14 -17 -26 -23 -8 -31 -16 -24 -20 20
-12 3 -20 -22 -11 -16 6 -20 11 -11 16 7 5 9 21 6 44 -4 20 -3 33 2 27 4 -5
17 -12 28 -13z m281 -16 c-4 -22 -2 -37 5 -42 9 -5 5 -10 -11 -16 -27 -10 -41
-1 -20 12 12 8 11 10 -5 11 -17 1 -17 2 -2 6 9 2 17 9 17 15 0 6 -10 4 -23 -5
-18 -12 -24 -12 -35 -1 -14 15 -16 28 -3 20 5 -4 11 -2 13 4 1 5 15 11 31 12
15 1 27 6 27 10 0 4 3 8 6 8 3 0 3 -15 0 -34z"/>
<path d="M1160 1612 c0 -5 7 -9 15 -9 8 0 15 4 15 9 0 4 -7 8 -15 8 -8 0 -15
-4 -15 -8z"/>
<path d="M1410 1612 c0 -5 7 -9 15 -9 8 0 15 4 15 9 0 4 -7 8 -15 8 -8 0 -15
-4 -15 -8z"/>
<path d="M1290 1540 c0 -5 5 -10 10 -10 6 0 10 5 10 10 0 6 -4 10 -10 10 -5 0
-10 -4 -10 -10z"/>
<path d="M1224 1516 c-3 -8 1 -27 10 -43 9 -16 15 -21 16 -12 0 8 -5 20 -11
26 -8 8 -8 13 0 17 6 4 11 11 11 17 0 14 -20 11 -26 -5z"/>
<path d="M1175 1501 c-3 -5 -1 -12 5 -16 5 -3 10 1 10 9 0 18 -6 21 -15 7z"/>
<path d="M1205 1488 c4 -13 11 -27 16 -33 5 -5 4 5 -2 23 -12 36 -24 44 -14
10z"/>
<path d="M1095 1420 c-3 -5 1 -10 10 -10 9 0 13 5 10 10 -3 6 -8 10 -10 10 -2
0 -7 -4 -10 -10z"/>
<path d="M1075 1369 c-12 -19 5 -23 22 -6 16 16 16 17 1 17 -9 0 -20 -5 -23
-11z"/>
<path d="M1050 1300 c0 -5 5 -10 10 -10 6 0 10 5 10 10 0 6 -4 10 -10 10 -5 0
-10 -4 -10 -10z"/>
<path d="M1350 1521 c0 -12 25 -32 33 -26 4 3 4 2 1 -2 -3 -5 -11 -8 -17 -8
-7 0 -13 -9 -14 -20 -2 -11 0 -14 3 -7 3 6 10 12 15 12 6 0 7 -6 4 -12 -4 -7
1 -4 9 6 20 25 20 36 -1 52 -21 16 -33 18 -33 5z"/>
<path d="M1424 1435 c-9 -22 1 -29 15 -11 8 10 9 16 1 21 -5 3 -13 -1 -16 -10z"/>
<path d="M1166 1431 c-4 -5 -2 -12 3 -15 5 -4 12 -2 15 3 4 5 2 12 -3 15 -5 4
-12 2 -15 -3z"/>
<path d="M1239 1399 c-8 -5 -10 -9 -6 -9 4 0 2 -6 -5 -14 -7 -8 -16 -12 -20
-9 -9 5 -10 -1 -14 -59 -2 -45 4 -83 13 -74 7 7 32 -17 27 -26 -6 -10 26 -16
74 -14 58 4 64 5 59 14 -6 9 19 33 26 26 9 -9 15 29 13 74 -4 59 -5 66 -12 59
-8 -8 -33 16 -27 26 5 8 2 9 -63 12 -28 2 -57 -1 -65 -6z m76 -19 c3 -5 15
-10 26 -10 11 0 22 -8 25 -17 3 -10 10 -26 15 -35 6 -11 6 -25 0 -35 -5 -10
-12 -26 -15 -35 -3 -10 -14 -18 -24 -18 -10 0 -23 -5 -30 -12 -8 -8 -15 -8
-24 -1 -7 6 -21 12 -31 14 -22 5 -47 68 -36 90 4 8 10 22 13 32 3 9 14 17 25
17 11 0 23 5 26 10 3 6 10 10 15 10 5 0 12 -4 15 -10z"/>
<path d="M1070 1243 c1 -13 27 -43 37 -43 5 0 18 7 29 16 10 8 13 13 7 9 -7
-3 -13 -2 -13 4 0 5 6 12 13 15 6 3 3 5 -8 3 -11 -1 -20 -7 -20 -14 0 -6 -3
-14 -7 -17 -5 -3 -6 -3 -3 1 6 8 -14 33 -26 33 -5 0 -9 -3 -9 -7z"/>
<path d="M1095 1180 c3 -5 8 -10 11 -10 2 0 4 5 4 10 0 6 -5 10 -11 10 -5 0
-7 -4 -4 -10z"/>
<path d="M1530 1300 c0 -5 5 -10 10 -10 6 0 10 5 10 10 0 6 -4 10 -10 10 -5 0
-10 -4 -10 -10z"/>
<path d="M1603 1175 c0 -8 4 -15 9 -15 4 0 8 7 8 15 0 8 -4 15 -8 15 -5 0 -9
-7 -9 -15z"/>
<path d="M1290 1060 c0 -5 5 -10 10 -10 6 0 10 5 10 10 0 6 -4 10 -10 10 -5 0
-10 -4 -10 -10z"/>
<path d="M1160 988 c0 -4 7 -8 15 -8 8 0 15 4 15 8 0 5 -7 9 -15 9 -8 0 -15
-4 -15 -9z"/>
<path d="M869 1466 c13 -14 29 -22 37 -19 17 6 18 23 2 23 -9 0 -8 4 2 10 13
8 13 10 -2 10 -9 0 -19 -6 -22 -12 -5 -10 -7 -10 -12 0 -3 6 -11 12 -17 12 -6
0 0 -11 12 -24z"/>
<path d="M1689 1481 c11 -7 11 -9 0 -14 -12 -5 -11 -7 1 -16 11 -7 20 -5 37
11 13 12 20 24 17 27 -3 3 -10 -1 -15 -9 -8 -11 -12 -12 -16 -2 -2 6 -12 12
-21 12 -14 0 -14 -2 -3 -9z"/>
<path d="M193 1205 c-10 -10 -9 -14 3 -19 22 -8 23 -8 20 9 -3 22 -10 24 -23
10z"/>
<path d="M869 1134 c-12 -13 -18 -24 -12 -24 6 0 14 6 17 13 5 10 7 10 12 0 9
-20 30 -15 31 6 2 30 -22 32 -48 5z"/>
<path d="M1690 1149 c-13 -7 -13 -10 -1 -18 11 -7 11 -9 0 -14 -11 -4 -11 -6
-1 -6 7 -1 20 5 27 13 19 18 -3 40 -25 25z"/>
<path d="M1110 908 c0 -9 6 -19 13 -21 9 -4 8 -8 -3 -16 -8 -5 -12 -12 -9 -15
3 -3 15 4 27 17 16 17 18 26 11 37 -9 12 -11 13 -16 1 -5 -11 -7 -11 -14 0 -7
11 -9 11 -9 -3z"/>
<path d="M1447 906 c-9 -22 13 -37 29 -21 8 7 14 17 14 22 0 14 -38 13 -43 -1z"/>
<path d="M1396 2404 c-8 -20 -4 -25 11 -16 7 4 9 13 4 21 -6 10 -10 9 -15 -5z"/>
<path d="M1475 2350 c3 -5 8 -10 11 -10 2 0 4 5 4 10 0 6 -5 10 -11 10 -5 0
-7 -4 -4 -10z"/>
<path d="M670 2170 c0 -5 4 -10 9 -10 6 0 13 5 16 10 3 6 -1 10 -9 10 -9 0
-16 -4 -16 -10z"/>
<path d="M1905 2170 c3 -5 10 -10 16 -10 5 0 9 5 9 10 0 6 -7 10 -16 10 -8 0
-12 -4 -9 -10z"/>
<path d="M420 1914 c0 -8 5 -12 10 -9 6 3 10 10 10 16 0 5 -4 9 -10 9 -5 0
-10 -7 -10 -16z"/>
<path d="M2160 1921 c0 -6 5 -13 10 -16 6 -3 10 1 10 9 0 9 -4 16 -10 16 -5 0
-10 -4 -10 -9z"/>
<path d="M2070 1815 c0 -15 18 -40 24 -34 3 3 -1 14 -9 25 -8 10 -14 15 -15 9z"/>
<path d="M240 1479 c0 -5 5 -7 10 -4 6 3 10 8 10 11 0 2 -4 4 -10 4 -5 0 -10
-5 -10 -11z"/>
<path d="M2345 1120 c-3 -5 -1 -10 4 -10 6 0 11 5 11 10 0 6 -2 10 -4 10 -3 0
-8 -4 -11 -10z"/>
<path d="M503 863 c-7 -3 -13 -11 -13 -19 0 -8 -5 -14 -12 -14 -6 0 -8 -3 -5
-7 4 -3 17 4 28 16 22 23 22 31 2 24z"/>
<path d="M510 799 c7 -11 14 -19 16 -16 7 7 -7 37 -17 37 -6 0 -5 -9 1 -21z"/>
<path d="M420 686 c0 -9 5 -16 10 -16 6 0 10 4 10 9 0 6 -4 13 -10 16 -5 3
-10 -1 -10 -9z"/>
<path d="M2166 691 c-4 -7 -5 -15 -2 -18 9 -9 19 4 14 18 -4 11 -6 11 -12 0z"/>
<path d="M794 515 c11 -8 22 -12 25 -9 6 6 -19 24 -34 24 -5 -1 -1 -7 9 -15z"/>
<path d="M670 430 c0 -5 7 -10 16 -10 8 0 12 5 9 10 -3 6 -10 10 -16 10 -5 0
-9 -4 -9 -10z"/>
<path d="M1905 430 c-3 -5 1 -10 9 -10 9 0 16 5 16 10 0 6 -4 10 -9 10 -6 0
-13 -4 -16 -10z"/>
<path d="M1475 250 c-3 -5 -1 -10 4 -10 6 0 11 5 11 10 0 6 -2 10 -4 10 -3 0
-8 -4 -11 -10z"/>
<path d="M1110 2349 c0 -5 5 -7 10 -4 6 3 10 8 10 11 0 2 -4 4 -10 4 -5 0 -10
-5 -10 -11z"/>
<path d="M1080 2234 c0 -16 9 -18 28 -5 10 6 9 10 -7 14 -14 3 -21 0 -21 -9z"/>
<path d="M1496 2240 c-19 -6 -19 -7 -1 -13 20 -8 29 -4 24 11 -2 5 -13 6 -23
2z"/>
<path d="M1048 2207 c-3 -14 -1 -32 3 -39 5 -7 9 -8 10 -3 0 6 2 17 4 26 1 9
-1 22 -5 29 -5 8 -9 3 -12 -13z"/>
<path d="M1540 2225 c-1 -5 -3 -17 -5 -26 -1 -9 1 -22 5 -28 11 -19 18 9 9 39
-4 14 -8 21 -9 15z"/>
<path d="M390 1549 c-14 -4 -20 -8 -15 -9 6 -1 17 -3 26 -5 9 -1 22 1 28 5 19
11 -9 18 -39 9z"/>
<path d="M2169 1549 c-8 -5 -9 -9 -4 -10 6 0 18 -2 27 -4 10 -2 20 0 23 5 7
12 -31 19 -46 9z"/>
<path d="M2345 1480 c3 -5 8 -10 11 -10 2 0 4 5 4 10 0 6 -5 10 -11 10 -5 0
-7 -4 -4 -10z"/>
<path d="M0 1300 c0 -13 7 -20 20 -20 13 0 20 7 20 20 0 13 -7 20 -20 20 -13
0 -20 -7 -20 -20z"/>
<path d="M240 1120 c0 -5 5 -10 11 -10 5 0 7 5 4 10 -3 6 -8 10 -11 10 -2 0
-4 -4 -4 -10z"/>
<path d="M380 1060 c-8 -5 -3 -9 13 -12 14 -3 32 -1 39 3 7 5 9 9 3 10 -5 0
-17 2 -26 4 -9 1 -22 -1 -29 -5z"/>
<path d="M2171 1060 c-19 -11 9 -19 34 -9 11 4 18 8 15 9 -22 7 -39 7 -49 0z"/>
<path d="M1539 435 c0 -5 -2 -18 -4 -27 -2 -10 0 -20 5 -23 12 -7 19 31 9 46
-5 8 -9 10 -10 4z"/>
<path d="M1110 250 c0 -5 5 -10 11 -10 5 0 7 5 4 10 -3 6 -8 10 -11 10 -2 0
-4 -4 -4 -10z"/>
</g>
</svg>
